<?xml version="1.0" encoding="UTF-8"?>
<!DOCTYPE svg PUBLIC "-//W3C//DTD SVG 1.1//EN" "http://www.w3.org/Graphics/SVG/1.1/DTD/svg11.dtd">
<!-- Creator: CorelDRAW 2019 (64-Bit) -->
<svg xmlns="http://www.w3.org/2000/svg" xml:space="preserve" width="243px" height="264px" version="1.1" style="shape-rendering:geometricPrecision; text-rendering:geometricPrecision; image-rendering:optimizeQuality; fill-rule:evenodd; clip-rule:evenodd"
viewBox="0 0 36.57 39.76"
 xmlns:xlink="http://www.w3.org/1999/xlink"
 xmlns:xodm="http://www.corel.com/coreldraw/odm/2003">
 <defs>
  <style type="text/css">
   <![CDATA[
    .fil0 {fill:#9397A0;fill-rule:nonzero}
   ]]>
  </style>
 </defs>
 <g id="Layer_x0020_1">
  <metadata id="CorelCorpID_0Corel-Layer"/>
  <path class="fil0" d="M33.56 15.47l-15.28 -12.06 -15.27 12.06 0 0.79 0 2.25 0 14.68c0,0.98 0.4,1.87 1.04,2.51 0.65,0.65 1.54,1.05 2.52,1.05l4.35 0 0 -17.09c0,-0.83 0.67,-1.5 1.51,-1.5l11.92 0c0.83,0 1.5,0.67 1.5,1.5l0 17.09 4.15 0c0.98,0 1.87,-0.4 2.51,-1.05 0.65,-0.64 1.05,-1.53 1.05,-2.51l0 -14.68 0 -2.25 0 -0.79zm-32.87 -1.98l16.65 -13.15c0.53,-0.44 1.31,-0.46 1.87,-0.02l16.67 13.17c0.41,0.26 0.69,0.73 0.69,1.26l0 18.44c0,1.81 -0.74,3.45 -1.93,4.64 -1.19,1.19 -2.83,1.93 -4.64,1.93l-11.72 0 -11.71 0c-1.81,0 -3.45,-0.74 -4.64,-1.93 -1.19,-1.19 -1.93,-2.83 -1.93,-4.64l0 -18.44c0,-0.53 0.27,-0.99 0.69,-1.26zm13.24 23.26l4.35 0 4.56 0 0 -15.58 -8.91 0 0 15.58z"/>
 </g>
</svg>
