<?xml version="1.0" encoding="UTF-8"?>
<!DOCTYPE svg PUBLIC "-//W3C//DTD SVG 1.1//EN" "http://www.w3.org/Graphics/SVG/1.1/DTD/svg11.dtd">
<!-- Creator: CorelDRAW 2019 (64-Bit) -->
<svg xmlns="http://www.w3.org/2000/svg" xml:space="preserve" width="201px" height="259px" version="1.1" style="shape-rendering:geometricPrecision; text-rendering:geometricPrecision; image-rendering:optimizeQuality; fill-rule:evenodd; clip-rule:evenodd"
viewBox="0 0 25.7 33.13"
 xmlns:xlink="http://www.w3.org/1999/xlink"
 xmlns:xodm="http://www.corel.com/coreldraw/odm/2003">
 <defs>
  <style type="text/css">
   <![CDATA[
    .fil0 {fill:#9397A0;fill-rule:nonzero}
   ]]>
  </style>
 </defs>
 <g id="Layer_x0020_1">
  <metadata id="CorelCorpID_0Corel-Layer"/>
  <path class="fil0" d="M6.57 13.09c-0.71,0 -1.28,-0.57 -1.28,-1.28 0,-0.7 0.57,-1.27 1.28,-1.27l3.83 0c0.7,0 1.28,0.57 1.28,1.27 0,0.71 -0.58,1.28 -1.28,1.28l-3.83 0zm-1.86 -13.09l10.26 0 0.01 0 0.02 0 0 0 0.02 0 0.01 0 0 0 0.02 0 0 0 0.02 0 0.01 0.01 0.02 0 0.02 0 0 0 0.01 0 0 0 0.02 0 0.01 0.01 0.02 0 0.02 0 0.01 0 0.02 0.01 0 0 0.01 0 0.02 0 0 0 0.02 0.01 0 0 0.01 0 0 0 0.02 0.01 0 0 0.01 0 0.02 0 0 0 0.01 0.01 0.02 0 0 0 0.01 0.01 0 0 0.02 0 0 0 0.01 0.01 0 0 0.02 0.01 0.01 0 0 0 0.02 0.01 0.01 0 0 0 0.02 0.01 0 0 0.01 0.01 0.02 0 0 0 0.01 0.01 0.01 0.01 0 0 0.02 0 0.01 0.01 0.02 0.01 0 0 0.01 0.01 0 0 0.01 0.01 0 0 0.02 0 0 0 0.01 0.01 0 0 0.01 0.01 0 0 0.02 0.01 0 0 0.01 0.01 0.01 0.01 0 0 0.02 0 0.01 0.01 0 0 0.01 0.01 0 0 0.01 0.01 0 0 0.02 0.01 0.01 0.01 0 0 0.01 0.01 0 0 0.01 0.01 0 0 0.01 0.01 0 0 0.01 0.01 0 0 0.02 0.01 0 0 0.01 0.01 0.01 0.01 0 0 0.01 0.01 0 0 0.01 0.02 0 0 0.01 0.01 0 0 9.45 9.44 0.01 0.02 0.01 0.01 0 0 0.01 0.01 0.02 0.01 0.02 0.03 0.02 0.02 0.02 0.03 0.02 0.02 0.02 0.03 0.01 0.02 0.02 0.03 0.02 0.03 0.01 0.03 0 0 0.01 0.01 0.01 0.01 0.01 0.03 0.02 0.03 0.01 0.03 0.01 0.03 0.01 0.03 0.01 0.02 0.01 0.03 0 0 0.01 0.03 0 0 0.01 0.02 0 0.01 0.01 0.03 0 0.03 0.01 0.03 0.01 0.03 0 0.02 0 0.01 0 0 0 0.03 0.01 0.03 0 0.04 0 0.03 0 0.03 0 0 0 0.01 0 0.02 0 17.68c0,1.29 -0.53,2.47 -1.38,3.32l0 0.01c-0.86,0.85 -2.03,1.38 -3.33,1.38l-16.28 0c-1.29,0 -2.47,-0.53 -3.32,-1.38l-0.01 -0.01 0 0.01c-0.85,-0.86 -1.38,-2.04 -1.38,-3.33l0 -23.71c0,-1.3 0.53,-2.47 1.38,-3.33 0.86,-0.85 2.03,-1.38 3.33,-1.38zm18.44 12.01l-8.18 0c-0.71,0 -1.28,-0.57 -1.28,-1.27l0 -8.19 -8.98 0c-0.59,0 -1.13,0.25 -1.52,0.64 -0.39,0.39 -0.64,0.93 -0.64,1.52l0 23.71c0,0.59 0.25,1.13 0.64,1.52l0 0c0.39,0.39 0.93,0.63 1.52,0.63l16.28 0c0.6,0 1.14,-0.24 1.53,-0.63 0.39,-0.39 0.63,-0.93 0.63,-1.52l0 -16.41zm-6.91 -2.55l5.1 0 -5.1 -5.1 0 5.1zm-9.67 15.99c-0.71,0 -1.28,-0.57 -1.28,-1.28 0,-0.71 0.57,-1.28 1.28,-1.28l12.37 0c0.71,0 1.28,0.57 1.28,1.28 0,0.71 -0.57,1.28 -1.28,1.28l-12.37 0zm0 -6.18c-0.71,0 -1.28,-0.57 -1.28,-1.28 0,-0.7 0.57,-1.27 1.28,-1.27l12.37 0c0.71,0 1.28,0.57 1.28,1.27 0,0.71 -0.57,1.28 -1.28,1.28l-12.37 0z"/>
 </g>
</svg>
