<?xml version="1.0" encoding="UTF-8"?>
<!DOCTYPE svg PUBLIC "-//W3C//DTD SVG 1.1//EN" "http://www.w3.org/Graphics/SVG/1.1/DTD/svg11.dtd">
<!-- Creator: CorelDRAW 2019 (64-Bit) -->
<svg xmlns="http://www.w3.org/2000/svg" xml:space="preserve" width="275px" height="275px" version="1.1" style="shape-rendering:geometricPrecision; text-rendering:geometricPrecision; image-rendering:optimizeQuality; fill-rule:evenodd; clip-rule:evenodd"
viewBox="0 0 45.9 45.9"
 xmlns:xlink="http://www.w3.org/1999/xlink"
 xmlns:xodm="http://www.corel.com/coreldraw/odm/2003">
 <defs>
  <style type="text/css">
   <![CDATA[
    .fil0 {fill:#9397A0}
   ]]>
  </style>
 </defs>
 <g id="Layer_x0020_1">
  <metadata id="CorelCorpID_0Corel-Layer"/>
  <g id="_2154972051008">
   <g>
    <path class="fil0" d="M45.85 21.42c-0.75,-11.46 -9.91,-20.62 -21.37,-21.37l0 -0.05 -1.53 0 -1.53 0 0 0.05c-11.46,0.75 -20.62,9.91 -21.37,21.37l-0.05 0 0 1.53 0 1.53 0.05 0c0.75,11.46 9.91,20.62 21.37,21.37l0 0.05 1.53 0 1.53 0 0 -0.05c11.46,-0.75 20.62,-9.91 21.37,-21.37l0.05 0 0 -1.53 0 -1.53 -0.05 0zm-31.48 -16.42c-1.48,1.97 -2.71,4.43 -3.6,7.24l-4.59 0c2,-3.11 4.83,-5.63 8.19,-7.24zm-9.79 10.3l5.38 0c-0.41,1.94 -0.67,3.99 -0.75,6.12l-6.09 0c0.16,-2.15 0.67,-4.21 1.46,-6.12zm-1.46 9.18l6.09 0c0.08,2.13 0.34,4.19 0.75,6.12l-5.38 0c-0.79,-1.9 -1.3,-3.96 -1.46,-6.12zm3.06 9.18l4.59 0c0.89,2.81 2.12,5.28 3.6,7.24 -3.36,-1.61 -6.19,-4.12 -8.19,-7.24zm15.24 8.99c-3.14,-0.84 -5.85,-4.22 -7.5,-8.99l7.5 0 0 8.99zm0 -12.05l-8.36 0c-0.43,-1.9 -0.7,-3.96 -0.79,-6.12l9.15 0 0 6.12zm0 -9.18l-9.15 0c0.09,-2.15 0.36,-4.21 0.79,-6.12l8.36 0 0 6.12zm0 -9.18l-7.5 0c1.65,-4.76 4.36,-8.14 7.5,-8.98l0 8.98zm18.3 0l-4.58 0c-0.9,-2.81 -2.12,-5.27 -3.6,-7.24 3.35,1.61 6.18,4.13 8.18,7.24zm-15.24 -8.98c3.14,0.84 5.86,4.22 7.5,8.98l-7.5 0 0 -8.98zm0 12.04l8.36 0c0.43,1.91 0.7,3.97 0.79,6.12l-9.15 0 0 -6.12zm0 9.18l9.15 0c-0.09,2.16 -0.36,4.22 -0.79,6.12l-8.36 0 0 -6.12zm0 18.17l0 -8.99 7.5 0c-1.64,4.77 -4.36,8.15 -7.5,8.99zm7.06 -1.75c1.47,-1.97 2.7,-4.43 3.6,-7.24l4.58 0c-2,3.12 -4.83,5.63 -8.18,7.24zm9.78 -10.3l-5.38 0c0.41,-1.93 0.67,-3.99 0.75,-6.12l6.09 0c-0.16,2.16 -0.67,4.22 -1.46,6.12zm-4.63 -9.18c-0.08,-2.13 -0.34,-4.18 -0.75,-6.12l5.38 0c0.79,1.91 1.3,3.97 1.46,6.12l-6.09 0z"/>
   </g>
   <g>
   </g>
   <g>
   </g>
   <g>
   </g>
   <g>
   </g>
   <g>
   </g>
   <g>
   </g>
   <g>
   </g>
   <g>
   </g>
   <g>
   </g>
   <g>
   </g>
   <g>
   </g>
   <g>
   </g>
   <g>
   </g>
   <g>
   </g>
   <g>
   </g>
  </g>
 </g>
</svg>
