<?xml version="1.0" encoding="UTF-8"?>
<!DOCTYPE svg PUBLIC "-//W3C//DTD SVG 1.1//EN" "http://www.w3.org/Graphics/SVG/1.1/DTD/svg11.dtd">
<!-- Creator: CorelDRAW 2019 (64-Bit) -->
<svg xmlns="http://www.w3.org/2000/svg" xml:space="preserve" width="251px" height="251px" version="1.1" style="shape-rendering:geometricPrecision; text-rendering:geometricPrecision; image-rendering:optimizeQuality; fill-rule:evenodd; clip-rule:evenodd"
viewBox="0 0 38.84 38.82"
 xmlns:xlink="http://www.w3.org/1999/xlink"
 xmlns:xodm="http://www.corel.com/coreldraw/odm/2003">
 <defs>
  <style type="text/css">
   <![CDATA[
    .fil0 {fill:#9397A0}
   ]]>
  </style>
 </defs>
 <g id="Layer_x0020_1">
  <metadata id="CorelCorpID_0Corel-Layer"/>
  <path class="fil0" d="M30.06 15.34c0.07,0.01 0.1,0.12 0.15,0.26l0.13 0.25c0.01,0.01 0.01,0.02 0.02,0.03 0.01,0.02 0.02,0.04 0.04,0.06l0.05 0.07c0.01,0.01 0.01,0.01 0.01,0.01l0.03 0.04c0.22,0.24 0.43,0.47 0.7,0.67l0.24 0.18c0.13,0.09 0.24,0.18 0.38,0.24l0.13 0.08c0.03,0.01 0.05,0.02 0.08,0.03l0.37 0.16c0.05,0.01 0.05,0 0.09,0.02l0.58 0.15c0.18,0.02 0.19,0 0.37,0.05 0.06,0.01 0.14,0.01 0.2,0.01 0.17,0 0.45,-0.03 0.6,0.03 0.19,0.07 0.35,0.04 0.62,0.24 0.04,0.03 0.09,0.05 0.12,0.08 0.08,0.07 0.17,0.12 0.24,0.19l0.39 0.45c0.12,0.21 0.21,0.64 0.17,0.88 -0.02,0.15 -0.12,0.57 -0.18,0.68 -0.1,0.17 -0.09,0.12 -0.18,0.24 -0.03,0.05 -0.03,0.08 -0.08,0.13 -0.07,0.08 -0.39,0.32 -0.49,0.36 -0.09,0.03 -0.06,0.03 -0.15,0.06l-0.51 0.12c-0.07,0.01 -0.1,0.04 -0.16,0.04 -0.18,0.03 -0.12,0 -0.34,0.05 -0.03,0.01 -0.02,0.01 -0.05,0.01 -0.2,0.03 -0.33,0.03 -0.51,0.11 -0.08,0.03 -0.1,0.01 -0.19,0.03 -0.1,0.02 -0.02,0.04 -0.14,0.06l-0.25 0.07c-0.07,0.03 0,0 -0.07,0.03 -0.11,0.04 -0.27,0.1 -0.37,0.16 -0.04,0.03 0,0.01 -0.06,0.04 -0.14,0.05 -0.3,0.12 -0.42,0.21 -0.04,0.03 -0.07,0.07 -0.11,0.1l-0.35 0.31c-0.16,0.15 -0.33,0.29 -0.47,0.47l-0.21 0.31c-0.09,0.15 -0.15,0.22 -0.21,0.42 -0.03,0.11 -0.03,0.06 -0.07,0.15 -0.03,0.11 -0.12,0.19 -0.14,0.27 -0.04,0.15 -0.14,0.34 -0.16,0.49 -0.02,0.14 -0.05,0.22 -0.07,0.35 -0.01,0.1 0,0.11 -0.02,0.19 -0.06,0.19 -0.03,0.41 -0.03,0.6 0,0.14 -0.01,0.28 0.03,0.39 0.03,0.12 0.02,0.21 0.08,0.34 0.04,0.12 0.04,0.21 0.09,0.33l0.09 0.22c0.01,0.03 0.04,0.06 0.05,0.08 0.02,0.07 0.01,0.09 0.05,0.16l0.21 0.44c0,0 0,0 0.01,0.01 0.08,0.14 0.04,0.13 0.19,0.3l0.04 0.05c0.05,0.05 0.02,0.01 0.05,0.06 0.09,0.15 0.21,0.28 0.31,0.43 0.06,0.08 0.09,0.18 0.16,0.26l0.2 0.32c0.03,0.04 0.03,0.02 0.04,0.07 0.05,0.03 0.04,0.01 0.09,0.1 0.11,0.19 0.17,0.51 0.16,0.73 -0.01,0.07 -0.03,0.07 -0.05,0.13 -0.04,0.14 0.04,0.02 -0.05,0.21 0,0 0,0 -0.01,0.01 -0.07,0.17 -0.04,0.1 -0.15,0.28 -0.15,0.27 -0.31,0.34 -0.44,0.48 -0.07,0.08 -0.31,0.25 -0.41,0.3l-0.38 0.16c-0.08,0.03 -0.02,0.03 -0.15,0.04 -0.13,0 -0.19,0.02 -0.33,0.01 -0.23,-0.01 -0.11,-0.01 -0.22,-0.05 -0.12,-0.04 -0.01,0.04 -0.19,-0.08 -0.05,-0.04 -0.06,-0.04 -0.12,-0.08l-0.16 -0.09c-0.05,-0.04 -0.03,-0.02 -0.05,-0.07 -0.06,0 -0.04,0.01 -0.09,-0.01l-0.07 -0.04c-0.08,-0.03 -0.02,0 -0.06,-0.03 -0.11,-0.1 -0.12,-0.08 -0.19,-0.15 -0.03,-0.04 -0.07,-0.09 -0.12,-0.11 -0.03,-0.02 -0.04,-0.02 -0.07,-0.03 -0.1,-0.05 -0.08,-0.04 -0.12,-0.09 -0.02,-0.03 -0.03,-0.04 -0.06,-0.06 -0.17,-0.11 -0.08,-0.05 -0.19,-0.15 -0.04,-0.04 -0.02,-0.02 -0.07,-0.05 -0.04,-0.02 -0.08,-0.05 -0.13,-0.08 -0.05,-0.04 0.01,-0.01 -0.07,-0.04 -0.05,-0.02 -0.03,-0.01 -0.08,-0.04l-0.56 -0.31c-0.22,-0.1 -0.12,-0.04 -0.24,-0.09 -0.04,-0.02 -0.04,-0.02 -0.09,-0.03 -0.22,-0.04 -0.2,-0.06 -0.36,-0.07 -0.18,-0.01 -0.1,-0.04 -0.41,-0.05 -0.22,0 -0.68,-0.02 -0.87,0.02 -0.15,0.04 -0.25,0.02 -0.4,0.04 -0.08,0.02 -0.08,0.04 -0.16,0.05 -0.13,0.01 -0.09,0 -0.19,0.04 -0.11,0.04 -0.03,-0.02 -0.23,0.08l-0.46 0.23c-0.05,0.03 -0.1,0.03 -0.22,0.11 -0.05,0.03 -0.08,0.04 -0.14,0.07 -0.03,0.02 -0.03,0.03 -0.06,0.05 -0.09,0.06 -0.11,0.03 -0.21,0.17 -0.02,0.03 0,0.01 -0.02,0.03 -0.04,0.03 -0.12,0.04 -0.22,0.13 -0.11,0.11 -0.31,0.31 -0.37,0.41 -0.07,0.11 -0.21,0.22 -0.25,0.28 -0.03,0.03 -0.03,0.04 -0.04,0.07 -0.01,0.01 -0.02,0.02 -0.02,0.03 -0.01,0 -0.01,0.01 -0.01,0.01 0,0 -0.01,0.01 -0.01,0.01l-0.27 0.43c-0.02,0.06 -0.04,0.11 -0.07,0.16 -0.03,0.07 -0.03,0.07 -0.05,0.15l-0.11 0.34c-0.03,0.24 -0.04,0.17 -0.06,0.4 0,0.08 -0.02,0.12 -0.04,0.18 -0.03,0.12 -0.06,0.45 -0.09,0.58 -0.01,0.09 -0.03,0.09 -0.04,0.18 -0.01,0.06 -0.01,0.14 -0.02,0.19 -0.02,0.07 -0.04,0.08 -0.06,0.17 -0.01,0.11 -0.05,0.26 -0.1,0.33 0,0.14 -0.03,0.11 -0.06,0.21 -0.04,0.15 -0.23,0.39 -0.35,0.51l-0.01 0.02c-0.07,0.06 -0.34,0.23 -0.42,0.27 -0.04,0.02 -0.06,0.01 -0.1,0.03 -0.1,0.03 0.01,0.03 -0.2,0.04 -0.12,0.01 -0.12,0.03 -0.2,0.05 -0.06,0.01 -0.42,0.02 -0.48,0 -0.05,-0.01 -0.09,-0.04 -0.18,-0.05l-0.57 -0.18c-0.11,-0.06 -0.17,-0.14 -0.26,-0.23 -0.11,-0.1 -0.12,-0.15 -0.2,-0.29l-0.3 -0.68c-0.06,-0.28 -0.06,-0.1 -0.07,-0.42 -0.01,-0.3 -0.06,-0.28 -0.07,-0.42 -0.01,-0.19 -0.04,-0.24 -0.06,-0.43 0,-0.07 -0.03,-0.15 -0.04,-0.21 -0.02,-0.05 -0.03,-0.17 -0.04,-0.24l-0.11 -0.31c-0.03,-0.05 -0.06,-0.09 -0.08,-0.14l-0.42 -0.7c-0.04,-0.05 -0.06,-0.07 -0.1,-0.11l-0.11 -0.13c-0.03,-0.04 -0.07,-0.06 -0.12,-0.1l-0.35 -0.33c-0.04,-0.04 -0.09,-0.07 -0.13,-0.1 -0.04,-0.04 -0.08,-0.06 -0.13,-0.1l-0.26 -0.17c-0.12,-0.05 -0.2,-0.12 -0.31,-0.15l-0.1 -0.02c0,-0.01 -0.01,-0.01 -0.01,-0.01l-0.23 -0.08c-0.04,-0.01 -0.05,-0.02 -0.08,-0.04 -0.1,-0.04 -0.21,-0.07 -0.31,-0.13 -0.02,-0.01 -0.06,-0.03 -0.07,-0.04l-0.17 -0.06c-0.02,-0.01 0,0 -0.03,-0.01 -0.02,-0.01 -0.03,-0.01 -0.05,-0.01 -0.11,-0.02 -0.18,-0.06 -0.3,-0.06 -0.17,0 -0.08,-0.05 -0.4,-0.05 -0.45,0 -0.45,0.01 -0.86,0.04 -0.15,0.02 -0.02,0.04 -0.17,0.06 -0.23,0.02 -0.31,0.09 -0.51,0.17 -0.08,0.03 -0.1,0.01 -0.19,0.06l-0.8 0.4 -0.69 0.55 -0.69 0.39c-0.02,0.01 -0.04,0.01 -0.05,0.02 -0.17,0.08 -0.13,0.05 -0.25,0.09 -0.12,0.04 -0.15,0.04 -0.29,0.04 -0.24,0 -0.22,-0.02 -0.4,-0.06 -0.05,-0.01 -0.13,-0.04 -0.17,-0.06 -0.06,-0.03 -0.08,-0.07 -0.13,-0.1l-0.21 -0.12c-0.18,-0.12 -0.34,-0.27 -0.46,-0.45l-0.03 -0.04c0,0 0,0 0,-0.01 -0.29,-0.37 -0.28,-1.13 -0.13,-1.52 0.06,-0.13 0.07,-0.19 0.15,-0.31 0.04,-0.04 0.01,0 0.04,-0.06l0.19 -0.27c0.05,-0.06 0.07,-0.14 0.12,-0.21l0.39 -0.52c0.09,-0.13 0.17,-0.25 0.24,-0.39l0.16 -0.33c0.03,-0.12 0.04,-0.24 0.09,-0.37 0.04,-0.11 0.03,-0.28 0.05,-0.39 0.08,-0.44 0.11,-0.55 0.11,-1.02 -0.01,-0.29 -0.04,-0.23 -0.05,-0.4 -0.03,-0.31 -0.03,-0.2 -0.06,-0.4l-0.12 -0.48c0,-0.01 -0.01,-0.01 -0.01,-0.02 0,0 0,-0.01 0,-0.01l-0.06 -0.19c-0.03,-0.09 -0.03,-0.01 -0.08,-0.14l-0.04 -0.07c-0.08,-0.17 -0.21,-0.32 -0.29,-0.5l-0.63 -0.73c-0.04,-0.04 -0.08,-0.07 -0.12,-0.11 -0.06,-0.06 -0.05,-0.04 -0.13,-0.08 -0.05,-0.03 -0.07,-0.07 -0.12,-0.11 -0.15,-0.12 -0.32,-0.22 -0.5,-0.29 -0.08,-0.02 -0.03,-0.02 -0.08,-0.04 -0.04,-0.02 -0.08,-0.02 -0.17,-0.06 -0.04,-0.02 -0.14,-0.02 -0.15,-0.05 -0.27,-0.04 -0.14,-0.04 -0.26,-0.07 -0.2,-0.04 -0.02,-0.04 -0.26,-0.07 -0.14,-0.01 -0.04,-0.05 -0.21,-0.06 -0.26,-0.01 -0.17,-0.04 -0.58,-0.06 -0.25,-0.01 -0.38,-0.09 -0.52,-0.1 -0.05,-0.01 -0.1,-0.01 -0.14,-0.02 -0.21,-0.09 -0.11,-0.01 -0.25,-0.09 -0.07,-0.03 -0.05,-0.01 -0.13,-0.03l-0.46 -0.22c-0.05,-0.04 -0.1,-0.06 -0.15,-0.11 -0.13,-0.16 -0.31,-0.32 -0.42,-0.53 -0.17,-0.34 -0.07,-0.24 -0.12,-0.36 -0.07,-0.16 -0.04,-0.22 -0.04,-0.45 0,-0.24 0.02,-0.14 0.04,-0.28 0.04,-0.23 0.01,-0.19 0.16,-0.47 0.1,-0.19 0.46,-0.53 0.65,-0.63 0.06,-0.03 0.12,-0.07 0.2,-0.11 0.06,-0.03 0.15,-0.08 0.21,-0.11l0.25 -0.08c0.05,-0.02 0.05,-0.04 0.1,-0.05l0.41 -0.06c0.28,-0.01 0.44,-0.07 0.61,-0.06 0.09,0.01 0.2,0.01 0.26,-0.02 0.09,-0.05 0.14,-0.04 0.27,-0.04 0.02,-0.04 0.02,-0.02 0.04,-0.07 0.12,0 0.32,-0.1 0.44,-0.16l0.29 -0.18c0.01,0 0.01,0 0.02,0l0.03 -0.02c0.11,-0.08 0.24,-0.11 0.34,-0.21 0.05,-0.04 0.08,-0.07 0.13,-0.11 0.08,-0.05 0.08,-0.02 0.14,-0.09 0.05,-0.05 0.09,-0.08 0.13,-0.11 0.16,-0.13 0.41,-0.42 0.51,-0.6 0.02,-0.03 0.02,-0.05 0.04,-0.08l0.36 -0.61c0.09,-0.16 0.19,-0.31 0.21,-0.5 0.02,-0.1 0.05,-0.08 0.06,-0.2 0.01,-0.1 0.01,-0.11 0.04,-0.2 0.04,-0.13 0,-0.27 0.05,-0.42 0.06,-0.18 0.02,-0.51 0.02,-0.72 0,-0.18 -0.05,-0.35 -0.06,-0.69l-0.03 -0.02c-0.04,-0.03 -0.03,-0.01 -0.03,-0.11 0,-0.26 -0.03,-0.17 -0.05,-0.29 -0.03,-0.15 0,-0.08 -0.07,-0.27l-0.14 -0.27c0,-0.01 -0.01,-0.02 -0.01,-0.02 -0.03,-0.05 -0.01,-0.02 -0.03,-0.07 -0.01,0 -0.01,-0.01 -0.01,-0.01l-0.57 -0.86c-0.04,-0.07 -0.06,-0.13 -0.14,-0.18l-0.08 -0.08c-0.03,-0.04 -0.03,-0.09 -0.06,-0.14 -0.07,-0.09 -0.11,-0.17 -0.16,-0.28l-0.22 -0.42c-0.07,-0.23 -0.17,-0.48 -0.04,-0.73 0.05,-0.08 0.04,-0.15 0.07,-0.21 0.01,0 0.01,0 0.01,-0.01l0.41 -0.67c0,0 0.01,-0.01 0.01,-0.01 0.07,-0.06 -0.02,0.02 0.03,-0.02l0.14 -0.15c0,0 0.02,-0.02 0.02,-0.02 0.05,-0.04 0,-0.01 0.07,-0.03l0.29 -0.16c0.05,-0.02 0.03,-0.01 0.1,-0.01 0.14,-0.02 0.03,-0.05 0.15,-0.06 0.03,0 0.08,0 0.11,0 0.12,-0.02 0.01,-0.01 0.08,-0.04 0.05,-0.02 0.15,-0.01 0.22,-0.01 0.07,0 0.09,0.01 0.16,0.04 0.09,0.03 0.2,0 0.29,0.04l0.1 0.03c0.03,0.01 0.04,0.01 0.07,0.02 0.01,0.01 0.03,0.02 0.04,0.02l0.14 0.07c0.03,0.01 0.04,0.01 0.06,0.02 0.04,0.01 0.07,0.06 0.11,0.09l0.27 0.18c0.04,0.03 0.09,0.07 0.13,0.1 0.1,0.11 0.63,0.48 0.75,0.56 0.08,0.05 0.07,0.04 0.13,0.1 0.1,0.08 0.25,0.14 0.37,0.17 0.08,0.02 0.03,0.01 0.09,0.04l0.37 0.08c0.26,0.01 0.5,0.1 0.77,0.12 0.26,0.01 0.57,0.03 0.85,0.01 0.15,-0.01 0.22,-0.07 0.35,-0.08 0.33,-0.01 0.31,-0.04 0.6,-0.06 0.04,-0.01 0.06,-0.01 0.09,-0.02 0.13,-0.06 -0.1,0.06 0.03,-0.02 0.04,-0.02 -0.01,-0.01 0.04,-0.02 0.13,-0.03 0.11,0.01 0.26,-0.06 0.05,-0.02 0.05,-0.02 0.09,-0.04 0.03,-0.02 0.04,-0.02 0.07,-0.04 0.04,-0.02 0.02,-0.02 0.06,-0.04 0.18,-0.08 0.36,-0.2 0.52,-0.32l0.14 -0.12c0.2,-0.16 0.14,-0.04 0.49,-0.41 0.09,-0.1 0.19,-0.19 0.25,-0.31 0.01,-0.02 0.01,-0.01 0.02,-0.03l0.07 -0.08c0.05,-0.06 0.06,-0.13 0.1,-0.19l0.26 -0.44c0,0 0.01,-0.01 0.01,-0.01l0.04 -0.07c0.05,-0.04 0.07,-0.09 0.1,-0.14l0.07 -0.15c0.1,-0.16 0.15,-0.45 0.15,-0.63 0,-0.11 -0.02,-0.31 0.03,-0.41 0.08,-0.15 0,-0.38 0.07,-0.56 0.03,-0.08 0.01,-0.17 0.02,-0.25 0,-0.18 0.02,-0.14 0.05,-0.25 0.02,-0.05 0.01,-0.07 0.02,-0.12 0,-0.03 0.01,-0.03 0.02,-0.06l0.07 -0.15c0.01,-0.03 0.04,-0.06 0.05,-0.07 0.06,-0.12 -0.01,-0.05 0.09,-0.13 0.04,-0.03 0.1,-0.17 0.31,-0.36 0.11,-0.1 0.24,-0.21 0.37,-0.28l0.52 -0.16c0.12,-0.01 0.32,-0.01 0.44,-0.01 0.14,0.01 0.25,0.05 0.37,0.1 0.08,0.03 0.15,0.05 0.21,0.1 0.04,0.03 0.04,0.02 0.08,0.05 0.09,0.05 0.16,0.13 0.26,0.2 0.15,0.1 0.18,0.22 0.3,0.34 0.07,0.09 0.15,0.26 0.18,0.36 0.02,0.09 -0.01,0.03 0.03,0.09 0.06,0.08 0.03,0.08 0.04,0.19 0,0.1 0.03,0.09 0.05,0.18 0.01,0.07 0.01,0.13 0.02,0.19 0.01,0.1 0.03,0.1 0.04,0.19 0.02,0.33 0.06,0.17 0.06,0.37 0,0.07 0,0.13 0.02,0.19 0.04,0.1 0.03,0.07 0.04,0.19 0.01,0.09 0.04,0.11 0.05,0.18 0.01,0.04 0,0.05 0.02,0.09 0.02,0.06 0.02,0 0.04,0.07 0.03,0.09 0,0.08 0.05,0.17 0.05,0.12 0.08,0.24 0.14,0.35l0.01 0.02c0.06,0.09 0.09,0.21 0.2,0.39l0.27 0.38c0.04,0.05 0.07,0.07 0.11,0.12l0.37 0.41c0,0 0,0 0.01,0.01l0.12 0.1c0.15,0.13 0.21,0.18 0.38,0.27l0.22 0.12c0.05,0.03 0.11,0.11 0.18,0.14l0.54 0.25c0.06,0.03 0.1,0.03 0.16,0.05 0.29,0.11 1.13,0.12 1.44,0.12l0.63 -0.03c0.06,-0.01 0.11,-0.03 0.18,-0.04 0.16,-0.03 0.11,0 0.26,-0.06 0.06,-0.02 0.11,-0.02 0.16,-0.05l0.16 -0.07c0.03,-0.02 0.05,-0.02 0.09,-0.04 0.04,-0.01 0.04,-0.02 0.08,-0.03 0.1,-0.04 0.17,-0.12 0.27,-0.16 0.13,-0.06 0.11,-0.06 0.22,-0.13 0.18,-0.11 0.36,-0.23 0.53,-0.37l0.3 -0.23c0.02,-0.02 0.01,-0.01 0.03,-0.03l0.22 -0.16c0.05,-0.02 0.03,-0.01 0.07,-0.04 0.05,-0.02 0.11,-0.05 0.16,-0.07l0.22 -0.11c0.11,-0.06 0.3,-0.13 0.43,-0.13 0.1,-0.01 0.1,0.01 0.17,0.03 0.26,0.07 0.18,-0.04 0.52,0.16 0.03,0.01 0,0 0.03,0.02l0.49 0.35c0.08,0.07 0.16,0.13 0.22,0.21 0.07,0.11 0.29,0.53 0.31,0.6 0.05,0.35 0.14,0.51 -0.05,0.85l-0.11 0.21c-0.05,0.08 -0.12,0.22 -0.18,0.29 -0.07,0.09 0.02,-0.02 -0.02,0.03l-0.06 0.09c-0.08,0.14 -0.18,0.27 -0.28,0.39 -0.03,0.03 -0.06,0.06 -0.09,0.12 0,0 -0.01,0 -0.01,0.01l-0.23 0.31c-0.07,0.11 -0.12,0.17 -0.17,0.29l-0.04 0.06c-0.05,0.11 -0.16,0.41 -0.2,0.46 -0.04,0.05 -0.1,0.27 -0.12,0.34 -0.01,0.08 -0.04,0.1 -0.05,0.17 -0.01,0.1 0.01,0.1 -0.03,0.19l-0.08 0.58c0,0.14 0,0.29 0,0.44 0,0.07 0,0.15 0.01,0.23 0,0.11 0.03,0.07 0.04,0.17 0.02,0.19 -0.01,0.21 0.05,0.39l0.06 0.4 0.22 0.54c0.03,0.06 0.03,0.04 0.02,0.11zm-8.46 1.68c0.09,-0.02 0.16,0.08 0.22,0.15l0.2 0.18c0.06,0.06 0.11,0.15 0.16,0.23l0.13 0.22c0.06,0.1 0.11,0.25 0.15,0.36l0.23 0.65c0.02,0.07 0.04,0.07 0.05,0.14 0.01,0.05 0,0.11 0.01,0.16 0.01,0.07 0.03,0.08 0.04,0.17 0,0.08 0,0.31 -0.01,0.38 -0.02,0.17 -0.03,0 -0.04,0.14 -0.04,0.37 -0.1,0.46 -0.2,0.78 -0.03,0.13 -0.18,0.45 -0.23,0.54 -0.04,0.07 -0.03,0.11 -0.07,0.17 0,0 0,0.01 0,0.01l-0.3 0.37c-0.04,0.05 -0.06,0.04 -0.12,0.1l-0.12 0.13c-0.11,0.13 -0.06,0.06 -0.18,0.14 -0.19,0.12 -0.16,0.17 -0.46,0.32l-0.25 0.13c-0.07,0.01 0.06,-0.02 -0.03,0l-0.03 0.01c-0.05,0.02 -0.03,0.03 -0.08,0.04l-0.23 0.06c-0.12,0.04 -0.02,0.04 -0.2,0.07l-0.22 0.07c-0.1,0.02 -0.1,0.04 -0.24,0.04 -0.16,0.01 -0.11,0.06 -0.33,0.06 -0.35,0 -0.48,-0.07 -0.8,-0.16 -0.2,-0.06 -0.14,-0.06 -0.27,-0.12 -0.06,-0.02 -0.09,-0.01 -0.15,-0.04l-0.16 -0.04c-0.07,-0.02 0.02,0.01 -0.05,-0.03 -0.05,-0.03 -0.03,-0.02 -0.1,-0.02 -0.02,-0.08 -0.09,-0.09 -0.17,-0.13l-0.8 -0.69c0,0 0,0 -0.01,-0.01l-0.07 -0.09c-0.14,-0.16 -0.2,-0.28 -0.29,-0.4 -0.07,-0.09 -0.05,-0.02 -0.09,-0.13l-0.1 -0.23c-0.07,-0.13 -0.05,-0.15 -0.09,-0.28 -0.02,-0.07 -0.04,-0.03 -0.04,-0.16 -0.01,-0.17 -0.06,-0.22 -0.07,-0.39 0,-0.17 -0.03,-0.06 -0.05,-0.16 -0.03,-0.09 -0.03,-0.53 0.01,-0.63 0.05,-0.1 0.01,-0.27 0.06,-0.38 0.03,-0.06 0.04,-0.1 0.04,-0.19 0.01,-0.11 0.04,-0.09 0.05,-0.18l0.05 -0.18c0.02,-0.05 0,-0.1 0.03,-0.14 0.04,-0.06 0.08,-0.1 0.11,-0.16 0.03,-0.06 0.01,-0.03 0.04,-0.07l0.02 -0.03c0.04,-0.06 0.03,-0.01 0.08,-0.1 0.07,-0.11 0.14,-0.23 0.23,-0.32l0.23 -0.23c0.06,-0.07 0.22,-0.25 0.34,-0.33 0.13,-0.08 0.29,-0.18 0.4,-0.28 0,0 0.01,0 0.01,0 0.06,-0.05 0.1,-0.06 0.16,-0.1 0,0 0.01,0 0.01,0 0.11,-0.06 0.17,-0.08 0.3,-0.1 0.07,-0.01 0.09,-0.04 0.17,-0.05 0.16,-0.01 0.25,-0.05 0.41,-0.06 0.18,0 0.57,-0.11 0.84,-0.04 0.06,0.01 0.08,0.04 0.16,0.04 0.28,0.01 0.21,0.03 0.4,0.06 0.11,0.01 0.25,0.05 0.34,0.1 0.05,0.03 0.02,0.01 0.08,0.02 0.03,0.01 0.01,0.01 0.04,0.02 0.01,0 0.03,0.01 0.05,0.02l0.11 0.05c0.01,0 0.01,0 0.02,0 0.17,0.08 0.06,0.05 0.17,0.11 0.07,0.05 0.07,0.04 0.13,0.09l0.26 0.2c0.06,0.03 0.1,0.06 0.11,0.12zm-8.52 2.26c0,0.32 -0.02,0.73 0.02,1.03l0.11 0.66c0.02,0.11 0.03,0.06 0.05,0.13 0.06,0.2 0.1,0.41 0.18,0.6 0.15,0.39 0.33,0.79 0.57,1.14 0.03,0.04 0.06,0.06 0.08,0.11 0.07,0.12 0.18,0.21 0.26,0.33l0.26 0.31c0.04,0.04 0.04,0.06 0.09,0.11 0.09,0.09 0.17,0.2 0.27,0.28 0.11,0.09 0.18,0.19 0.3,0.27 0.1,0.08 0.13,0.1 0.22,0.18 0.1,0.09 0.19,0.19 0.3,0.27 0.04,0.02 0.07,0.06 0.11,0.08l0.12 0.07c0.05,0.03 0.08,0.05 0.12,0.08 0.08,0.04 0.18,0.08 0.26,0.13l0.05 0.04c0.02,0.01 0.04,0.02 0.06,0.03l0.19 0.1c0,0 0.01,0 0.01,0l0.47 0.21c0.06,0.02 0.09,0.02 0.14,0.04 0.11,0.04 0.22,0.02 0.32,0.07 0.09,0.05 0.14,0.01 0.31,0.07l1.51 0.15 1.28 -0.09 0.57 -0.11c0.07,-0.04 -0.02,-0.01 0.07,-0.04 0.13,-0.04 0.1,-0.01 0.31,-0.09 0.02,0 0.12,-0.04 0.14,-0.05l0.13 -0.07c0.05,-0.02 0,-0.01 0.06,-0.03 0.11,-0.05 0.25,-0.15 0.45,-0.24l0.33 -0.17c0.05,-0.02 0.02,0 0.06,-0.03l0.92 -0.67c0.04,-0.04 0.03,-0.05 0.09,-0.1 0.05,-0.04 0.07,-0.05 0.11,-0.1l0.18 -0.2c0.03,-0.03 0.06,-0.07 0.09,-0.1 0.04,-0.05 0.05,-0.08 0.09,-0.13 0.03,-0.04 0.06,-0.05 0.09,-0.09 0.12,-0.17 0.26,-0.33 0.36,-0.51 0.01,-0.01 0.01,-0.01 0.01,-0.02l0.29 -0.53c0,-0.01 0,-0.01 0,-0.02l0.02 -0.02c0.08,-0.11 0.28,-0.5 0.32,-0.65 0.02,-0.06 0,-0.03 0.03,-0.08 0.06,-0.11 0.07,-0.26 0.1,-0.39 0.04,-0.23 0.1,-0.4 0.13,-0.65 0.01,-0.11 0.04,-0.15 0.06,-0.34 0.04,-0.32 0.06,-0.7 0.06,-1.04 0,-0.2 -0.05,-0.17 -0.07,-0.32 0,-0.07 -0.01,-0.11 -0.01,-0.17 -0.01,-0.1 -0.01,-0.1 -0.03,-0.17 -0.02,-0.08 -0.02,-0.26 -0.03,-0.34 -0.02,-0.12 -0.18,-0.9 -0.21,-0.97l-0.59 -1.14c-0.08,-0.13 -0.14,-0.25 -0.24,-0.36 -0.03,-0.04 -0.06,-0.06 -0.09,-0.11 -0.03,-0.04 -0.04,-0.07 -0.09,-0.1 -0.08,-0.05 -0.1,-0.11 -0.17,-0.18l-0.15 -0.16c-0.01,-0.02 -0.01,-0.01 -0.02,-0.03 -0.1,-0.09 -0.09,-0.12 -0.24,-0.24 -0.03,-0.03 -0.08,-0.13 -0.17,-0.19l-0.42 -0.35c-0.04,-0.03 -0.07,-0.06 -0.11,-0.09 -0.01,0 -0.03,-0.03 -0.04,-0.04l-0.25 -0.19c-0.14,-0.09 -0.31,-0.21 -0.46,-0.26 -0.06,-0.02 -0.09,-0.01 -0.14,-0.05 -0.09,-0.07 -0.18,-0.08 -0.27,-0.14 -0.07,-0.04 -0.15,-0.05 -0.22,-0.08 -0.17,-0.07 -0.09,-0.1 -0.42,-0.16 -0.08,-0.02 -0.06,-0.03 -0.13,-0.05 -0.09,-0.04 -0.23,-0.06 -0.34,-0.07 -0.06,-0.01 -0.14,-0.05 -0.31,-0.07 -0.06,0 -0.11,-0.01 -0.18,-0.01 -0.1,-0.01 -0.09,-0.03 -0.16,-0.04 -0.21,-0.03 -1.33,-0.01 -1.64,0 -0.11,0.01 -0.07,0.02 -0.16,0.04 -0.11,0.03 -0.24,0 -0.37,0.02 -0.05,0.01 -0.09,0.04 -0.14,0.05 -0.07,0.01 -0.11,0 -0.17,0.02l-0.54 0.21c-0.03,0.01 -0.05,0.01 -0.07,0.02l-0.48 0.2c-0.06,0.04 -0.06,0.03 -0.12,0.05l-0.27 0.13c-0.05,0.02 -0.07,0.03 -0.12,0.06 -0.01,0 -0.05,0.03 -0.06,0.03l-0.62 0.45c-0.04,0.03 -0.06,0.06 -0.1,0.09 -0.06,0.06 -0.14,0.08 -0.2,0.14l-0.02 0.01c0,0.01 0,0.01 -0.01,0.01 -0.02,0.02 -0.02,0.03 -0.04,0.04l-0.09 0.1c-0.1,0.12 -0.25,0.21 -0.33,0.34 -0.18,0.26 -0.16,0.19 -0.26,0.33 -0.06,0.08 -0.31,0.35 -0.34,0.41 -0.02,0.05 -0.09,0.11 -0.12,0.16l-0.07 0.12c-0.05,0.07 -0.05,0.14 -0.1,0.21 -0.07,0.08 -0.09,0.15 -0.13,0.26l-0.19 0.45c-0.01,0.05 -0.01,0.02 -0.03,0.08 -0.02,0.05 -0.03,0.08 -0.05,0.13l-0.04 0.11c-0.09,0.21 -0.14,0.43 -0.16,0.65 -0.02,0.12 -0.03,0.08 -0.05,0.15 -0.02,0.1 0.01,0.27 -0.02,0.37l-0.05 0.32c-0.01,0.12 -0.01,0.27 -0.01,0.39zm4.01 -18.67l-0.02 0.04c-0.05,0.06 -0.16,0.09 -0.24,0.14l-0.01 0.01c-0.01,0 -0.01,0.01 -0.01,0.01l-0.28 0.22c-0.17,0.16 -0.21,0.13 -0.34,0.29 -0.01,0.02 0,0 -0.03,0.03 -0.01,0.02 -0.03,0.04 -0.04,0.05 -0.01,0 -0.01,0 -0.01,0.01l-0.02 0.02c0,0 -0.01,0 -0.01,0l-0.27 0.29c-0.13,0.14 -0.18,0.22 -0.27,0.37l-0.06 0.09c-0.14,0.19 -0.06,0.09 -0.12,0.2 -0.09,0.17 -0.06,-0.02 -0.17,0.3l-0.17 0.45c-0.02,0.08 -0.01,0.07 -0.04,0.13 -0.02,0.04 -0.07,0.2 -0.08,0.25l-0.11 0.52c-0.03,0.33 0.01,0.2 -0.07,0.56l-0.09 0.54c-0.06,0.12 0.01,0.09 -0.07,0.25l-0.07 0.17c-0.02,0.05 0,0.02 -0.03,0.06l-0.31 0.32c-0.1,0.11 -0.01,0.06 -0.17,0.14 -0.13,0.06 -0.06,0.04 -0.24,0.11 -0.12,0.04 0,0.04 -0.23,0.05 -0.17,0 -0.31,0.02 -0.41,-0.06 -0.05,-0.04 -0.03,-0.03 -0.1,-0.06l-0.17 -0.07c-0.06,-0.05 -0.02,0 -0.05,-0.07 -0.07,-0.01 -0.44,-0.26 -0.51,-0.32l-0.11 -0.1c-0.12,-0.12 -0.25,-0.17 -0.4,-0.25l-0.11 -0.06c0,-0.01 0,-0.01 -0.01,-0.01 0,0 0,-0.01 -0.01,-0.01l-0.78 -0.43c-0.01,0 -0.01,0 -0.01,0 -0.04,-0.02 -0.01,0 -0.04,-0.02 -0.12,-0.06 -0.23,-0.08 -0.32,-0.12 -0.04,-0.02 -0.08,-0.04 -0.16,-0.05 -0.16,-0.01 -0.2,-0.05 -0.38,-0.05 -0.31,-0.01 -0.49,-0.06 -0.81,-0.06 -0.29,0 -0.52,0.01 -0.81,0.05 -0.15,0.02 -0.25,-0.01 -0.39,0.04 -0.08,0.03 -0.08,0.02 -0.18,0.03 -0.1,0.02 -0.06,0.04 -0.16,0.06l-0.31 0.11c-0.05,0.03 -0.09,0.05 -0.14,0.07l-0.22 0.11c0,0.01 -0.03,0.02 -0.03,0.02l-0.03 0.03c-0.05,0.02 -0.2,0.07 -0.29,0.13 -0.13,0.07 -0.3,0.14 -0.4,0.25 -0.05,0.04 -0.07,0.05 -0.13,0.08l-0.08 0.07c0,0 0,0 0,0l-0.16 0.13c-0.02,0.03 -0.02,0.04 -0.05,0.06l-0.21 0.2c-0.03,0.04 -0.03,0.04 -0.05,0.08 -0.05,0.09 -0.09,0.09 -0.14,0.17 -0.03,0.04 -0.01,0.01 -0.05,0.06 -0.04,0.04 -0.05,0.09 -0.08,0.13 -0.03,0.05 -0.07,0.07 -0.1,0.13 -0.03,0.08 -0.1,0.12 -0.18,0.24l-0.04 0.06c-0.02,0.03 -0.02,0.03 -0.04,0.06 -0.02,0.03 0,0 -0.02,0.03l-0.1 0.19c-0.01,0.04 -0.01,0.02 -0.03,0.07l-0.04 0.06c-0.03,0.06 -0.01,-0.03 -0.03,0.07 -0.03,0.17 -0.01,0.07 -0.06,0.16l-0.05 0.17c-0.02,0.07 -0.01,0.13 -0.02,0.19 -0.02,0.07 -0.05,0.07 -0.06,0.15 -0.01,0.16 -0.06,0.22 -0.06,0.37 -0.06,0.85 -0.09,1.22 0.05,2l0.08 0.36c0.01,0.08 0.03,0.1 0.04,0.16 0.03,0.1 0.02,0.07 0.06,0.15 0,0.01 0,0.01 0,0.01l0.54 0.95c0.04,0.07 0.05,0.06 0.09,0.12l0.09 0.13c0.14,0.16 0.28,0.3 0.38,0.48 0.03,0.06 0.05,0.09 0.08,0.14 0.04,0.05 0.03,0.08 0.07,0.14 0.11,0.17 0.13,0.3 0.13,0.52 0,0.23 0,0.16 -0.06,0.36l-0.09 0.22c-0.02,0.03 -0.02,0.07 -0.03,0.1 -0.05,0.11 -0.34,0.34 -0.45,0.41 -0.13,0.07 -0.31,0.12 -0.45,0.18 -0.05,0.02 -0.01,0.02 -0.07,0.04l-0.46 0.08c-0.12,0 -0.08,0.02 -0.18,0.03 -0.07,0.01 -0.15,0 -0.22,0.01l-0.69 0.17c-0.11,0.02 -0.14,0.05 -0.24,0.07 -0.22,0.03 -0.61,0.26 -0.79,0.38l-0.63 0.46c-0.15,0.11 -0.3,0.29 -0.43,0.43 -0.03,0.03 -0.06,0.08 -0.09,0.12 -0.02,0.02 -0.03,0.03 -0.05,0.05l-0.02 0.02c0,0 -0.01,0.01 -0.01,0.01l-0.07 0.08c-0.01,0.03 -0.03,0.04 -0.04,0.06l-0.19 0.25c-0.02,0.02 -0.03,0.05 -0.04,0.07 0,0 0,0 -0.01,0.01l-0.24 0.49c-0.02,0.06 -0.03,0.1 -0.04,0.17 -0.01,0.03 -0.21,0.4 -0.3,0.77 -0.01,0.07 -0.02,0.12 -0.03,0.19 -0.03,0.14 -0.03,0.24 -0.04,0.39 -0.01,0.17 -0.04,0.16 -0.04,0.4 0,0.24 -0.01,0.48 0.04,0.71 0.01,0.04 0.01,0.07 0.01,0.11 0.01,0.08 0.03,0.11 0.04,0.17l0.07 0.25c0.01,0.04 0,0.05 0.01,0.09 0.02,0.07 0.04,0.09 0.06,0.17 0.03,0.11 0.28,0.76 0.33,0.84l0.21 0.34c0.03,0.08 0.19,0.29 0.27,0.36 0.11,0.1 0.29,0.33 0.42,0.44 0.11,0.1 0.32,0.35 0.44,0.41 0.05,0.02 0.02,-0.01 0.07,0.03l0.19 0.14c0.19,0.13 0.34,0.18 0.43,0.24l0.4 0.22c0.05,0.02 0.02,0 0.08,0.02 0.14,0.04 0.11,0.07 0.42,0.12 0.07,0.01 0.08,0.03 0.17,0.04 0.07,0.01 0.15,0.01 0.2,0.03 0.29,0.1 0.68,0 1,0.07 0.06,0.02 0.12,0.02 0.19,0.02 0.09,0.01 0.42,0.09 0.49,0.16 0.06,0.07 0,0.05 0.1,0.11 0.09,0.05 0.15,0.14 0.22,0.22 0.12,0.11 0.27,0.36 0.32,0.54 0.02,0.11 0.04,0.35 -0.01,0.46 0,0.01 -0.01,0.02 -0.01,0.03 -0.01,0.01 -0.01,0.01 -0.01,0.01 0,0.01 -0.01,0.01 -0.01,0.02 0,0 0,0 0,0.01 -0.08,0.13 -0.14,0.29 -0.23,0.42 -0.04,0.05 -0.05,0.07 -0.09,0.12 -0.04,0.04 -0.07,0.08 -0.1,0.12 -0.04,0.05 -0.06,0.07 -0.09,0.12 -0.02,0.03 -0.03,0.04 -0.05,0.06l-0.19 0.28c-0.05,0.06 -0.1,0.08 -0.14,0.14 -0.05,0.09 0,0.06 -0.08,0.14 -0.07,0.07 -0.17,0.3 -0.24,0.4l-0.14 0.28c-0.03,0.07 -0.04,0.09 -0.07,0.16 -0.07,0.17 -0.06,0.25 -0.09,0.33 -0.02,0.06 -0.04,0.06 -0.05,0.16 0,0.03 0,0.07 0,0.1 -0.02,0.1 -0.01,0.02 -0.04,0.09 -0.04,0.11 -0.01,0.29 -0.03,0.39 -0.02,0.12 -0.05,0.24 -0.05,0.38 0,0.33 -0.05,0.72 0.04,1.03 0.02,0.09 0.01,0.18 0.06,0.36 0.02,0.07 0.01,0.15 0.02,0.2 0.03,0.08 0.04,0.06 0.06,0.15l0.09 0.23c0.05,0.11 0.04,0.17 0.13,0.31l0.55 0.93c0.05,0.05 0.04,0.01 0.05,0.09 0.01,0 0.05,0.05 0.06,0.05 0.02,0.02 0.01,0.01 0.03,0.04 0.02,0.03 0.01,0.01 0.02,0.03 0.09,0.04 0.17,0.14 0.24,0.22 0.06,0.07 0.16,0.11 0.21,0.17 0.14,0.15 0.3,0.26 0.46,0.38l0.63 0.37c0.07,0.05 0.2,0.07 0.3,0.12l0.7 0.21c0.11,0.02 0.16,0.05 0.27,0.06 0.13,0.01 0.17,0.02 0.29,0.04 0.28,0.03 0.67,0.05 0.97,0.03 0.2,-0.02 0.38,-0.1 0.53,-0.13 0.11,-0.01 0.16,-0.04 0.26,-0.07l0.87 -0.29c0.13,-0.05 0.22,-0.1 0.33,-0.17 0.06,-0.05 0.03,-0.04 0.09,-0.08l0.39 -0.27c0.09,-0.06 0.09,-0.09 0.2,-0.15 0,0 0.01,-0.01 0.01,-0.01 0,0 0.01,0 0.01,0 0.01,-0.01 0.01,-0.01 0.01,-0.01l0.08 -0.08c0.17,-0.21 0.57,-0.38 0.82,-0.47 0.08,-0.03 0.37,-0.02 0.48,-0.01l0.4 0.17c0.1,0.07 0.22,0.22 0.29,0.31 0.09,0.09 0.16,0.19 0.21,0.31l0.05 0.1c0.07,0.14 0.08,0.3 0.13,0.44 0.04,0.11 0.04,0.26 0.05,0.38 0.01,0.09 0.02,0.21 0.04,0.29 0.02,0.13 0.03,0.28 0.08,0.4 0.03,0.06 0.03,0.07 0.04,0.15 0,0.03 0.01,0.09 0.02,0.13 0.05,0.14 -0.01,0.06 0.07,0.26l0.66 1.18c0.04,0.07 0.08,0.14 0.13,0.2 0.07,0.07 0.1,0.09 0.16,0.17 0.08,0.09 0.15,0.18 0.25,0.25 0.14,0.09 0.22,0.24 0.36,0.34l0.08 0.05c0.1,0.08 0.38,0.26 0.51,0.31l0.53 0.25c0.06,0.04 0.02,0.01 0.04,0.05 0.1,-0.03 0.25,0.06 0.34,0.09l0.36 0.07c0.15,0.01 0.27,0.01 0.42,0.03 0.33,0.05 0.99,0.05 1.31,0.02l0.39 -0.04c0.11,-0.01 0.07,-0.04 0.17,-0.05l0.27 -0.07c0.15,-0.05 0.26,-0.11 0.4,-0.18l0.42 -0.21c0.25,-0.13 0.33,-0.2 0.54,-0.34 0.04,-0.03 0.1,-0.07 0.13,-0.11l0.33 -0.33c0.05,-0.04 0.08,-0.07 0.12,-0.11 0.08,-0.07 0.13,-0.16 0.21,-0.22 0.1,-0.08 0.27,-0.37 0.29,-0.39 0.08,-0.08 0.17,-0.3 0.24,-0.42 0.03,-0.05 0.05,-0.08 0.08,-0.15 0.05,-0.11 0.11,-0.18 0.14,-0.29l0.07 -0.16c0.02,-0.06 0.05,-0.09 0.07,-0.16 0.02,-0.13 0.06,-0.22 0.07,-0.36 0.01,-0.12 0.03,-0.08 0.04,-0.19 0.02,-0.21 0.04,-0.91 0.08,-1.02 0.05,-0.11 0.04,-0.15 0.06,-0.26 0.02,-0.05 0.02,-0.02 0.03,-0.09 0.03,-0.12 -0.01,-0.09 0.05,-0.18 0.06,-0.09 0.1,-0.19 0.18,-0.26l0.12 -0.1c0.05,-0.04 0.08,-0.09 0.12,-0.12l0.29 -0.14c0.27,-0.07 0.1,-0.05 0.42,-0.05 0.12,0 0.11,0 0.2,0.04 0.06,0.02 0.11,0.01 0.17,0.03 0.2,0.06 0.48,0.22 0.64,0.34l0.52 0.37c0.07,0.05 0.14,0.12 0.21,0.15 0.09,0.04 0.2,0.17 0.4,0.26 0.19,0.09 0.28,0.12 0.49,0.18 0.07,0.02 0.09,0.04 0.17,0.05 0.13,0.02 0.26,0.04 0.38,0.06 0.08,0.01 0.12,0.03 0.17,0.04 0.2,0.05 0.41,0.04 0.61,0.07 0.57,0.08 1.08,-0.07 1.61,-0.16l0.37 -0.07c0.07,-0.02 0.02,-0.03 0.14,-0.06 0.04,-0.01 0.05,-0.01 0.08,-0.02 0.19,-0.1 0.41,-0.2 0.57,-0.33 0.1,-0.09 0.24,-0.14 0.34,-0.23 0.04,-0.04 0.08,-0.07 0.12,-0.1 0.18,-0.18 0.39,-0.34 0.58,-0.54l0.25 -0.3c0.08,-0.07 0.09,-0.12 0.14,-0.2 0.09,-0.13 0.16,-0.14 0.23,-0.32l0.12 -0.23c0.02,-0.04 0.04,-0.11 0.06,-0.14 0.09,-0.14 0.12,-0.35 0.18,-0.51 0.04,-0.09 0.02,-0.17 0.06,-0.26 0.03,-0.07 0.03,-0.12 0.05,-0.18 0.01,-0.06 0.02,-0.02 0.03,-0.08 0.02,-0.06 0.02,-0.15 0.03,-0.21 0.01,0 -0.02,0.03 0.04,0 0.02,-0.37 0.11,-0.57 0.05,-0.99 -0.02,-0.14 -0.02,-0.33 -0.08,-0.45 -0.03,-0.07 -0.01,-0.16 -0.02,-0.24 -0.02,-0.11 -0.11,-0.29 -0.13,-0.41l-0.18 -0.61c-0.03,-0.06 -0.02,-0.02 -0.05,-0.08 -0.01,-0.04 -0.01,-0.05 -0.04,-0.1 -0.15,-0.34 -0.17,-0.3 -0.24,-0.42 -0.08,-0.14 -0.28,-0.35 -0.36,-0.5 -0.02,-0.03 0,0 -0.03,-0.04 0,-0.01 -0.05,-0.06 -0.06,-0.07 -0.13,-0.13 -0.12,-0.17 -0.23,-0.29 -0.08,-0.07 -0.05,-0.07 -0.11,-0.15 -0.03,-0.05 -0.03,-0.05 -0.06,-0.08 -0.15,-0.23 -0.08,-0.24 -0.16,-0.39 -0.02,-0.06 -0.02,-0.16 -0.02,-0.24 0,-0.11 0.02,-0.12 0.05,-0.22 0.06,-0.14 0.06,-0.23 0.18,-0.37l0.12 -0.14c0.09,-0.08 0.21,-0.2 0.33,-0.25l0.06 -0.02c0.07,-0.03 0,-0.03 0.09,-0.05 0.03,-0.01 0.07,-0.01 0.11,-0.02 0.1,-0.02 0.06,-0.02 0.09,-0.04 0.12,-0.05 0.59,-0.04 0.74,-0.06 0.09,-0.02 0.11,-0.06 0.18,-0.07 0.1,-0.01 0.15,0.01 0.25,-0.02 0.05,-0.02 0.05,-0.03 0.1,-0.03l0.52 -0.16c0.18,-0.08 0.31,-0.12 0.49,-0.22 0.11,-0.06 0.23,-0.06 0.42,-0.18 0.07,-0.05 0.12,-0.07 0.19,-0.14l0.04 -0.04c0.01,0 0.01,-0.01 0.01,-0.01l0.76 -0.67c0.13,-0.12 0.28,-0.27 0.38,-0.42 0.04,-0.08 0.07,-0.09 0.11,-0.15l0.49 -0.85c0.02,-0.06 0.05,-0.13 0.1,-0.19 0,-0.04 0.02,-0.05 0.02,-0.1 0.01,-0.05 0.01,-0.08 0.02,-0.13 0.03,-0.1 0.05,-0.06 0.06,-0.21 0,-0.13 0.02,-0.15 0.04,-0.25 0.01,-0.09 0.01,-0.16 0.01,-0.26 0,-0.11 0.05,-0.29 0.05,-0.51 0,-0.13 0.02,-0.45 0,-0.55 -0.03,-0.12 -0.04,-0.08 -0.05,-0.24l-0.07 -0.62c-0.01,-0.06 -0.03,-0.07 -0.04,-0.11 -0.01,-0.05 0,-0.07 -0.01,-0.12 -0.01,-0.06 -0.03,-0.07 -0.04,-0.1 -0.04,-0.12 0.03,0.01 -0.06,-0.18l-0.01 -0.04c-0.02,-0.07 -0.05,-0.13 -0.08,-0.2l-0.06 -0.08c0,-0.01 -0.02,-0.05 -0.02,-0.05 -0.02,-0.02 -0.02,-0.03 -0.03,-0.06 -0.02,-0.04 -0.03,-0.07 -0.04,-0.1 -0.03,-0.07 0,-0.01 -0.06,-0.08l-0.34 -0.5c-0.05,-0.08 -0.03,-0.09 -0.11,-0.17l-0.42 -0.42c-0.07,-0.09 -0.08,-0.08 -0.16,-0.12 -0.06,-0.03 -0.09,-0.08 -0.15,-0.13 -0.02,-0.02 -0.05,-0.04 -0.07,-0.07 -0.05,-0.04 -0.01,-0.02 -0.08,-0.06 -0.09,-0.06 -0.03,0.01 -0.16,-0.12 -0.06,-0.05 -0.1,-0.07 -0.17,-0.11 -0.25,-0.18 -0.46,-0.23 -0.55,-0.29 -0.12,0 -0.08,0 -0.16,-0.04 -0.06,-0.03 -0.12,-0.01 -0.18,-0.04 -0.04,-0.02 0.03,-0.01 -0.06,-0.03 -0.14,-0.03 -0.26,-0.1 -0.42,-0.11 -0.05,-0.01 -0.1,-0.01 -0.14,-0.03 0,0 -0.01,-0.01 -0.01,-0.01l-0.04 -0.01c0,-0.01 0,-0.01 -0.01,-0.01 -0.08,-0.02 -0.16,-0.01 -0.25,-0.03 -0.28,-0.08 -0.14,-0.04 -0.48,-0.05 -0.15,0 -0.07,-0.04 -0.3,-0.05 -0.13,-0.01 -0.17,-0.05 -0.32,-0.06 -0.07,-0.11 -0.09,-0.02 -0.21,-0.09l-0.23 -0.09c-0.07,-0.04 -0.04,-0.02 -0.1,-0.07 -0.03,-0.03 -0.05,-0.05 -0.08,-0.08 -0.11,-0.1 -0.22,-0.22 -0.25,-0.38 -0.05,-0.25 -0.05,-0.35 -0.05,-0.6 0,-0.13 -0.01,-0.18 0.04,-0.29 0.05,-0.11 0,-0.13 0.08,-0.24 0.06,-0.09 0.17,-0.33 0.25,-0.4 0.02,-0.02 0.06,-0.04 0.09,-0.07l0.53 -0.76c0.1,-0.19 0.07,-0.06 0.25,-0.4l0.06 -0.11c0.07,-0.15 0.1,-0.36 0.14,-0.51 0.01,-0.06 0.04,-0.07 0.05,-0.1 0.01,-0.04 0,-0.1 0.01,-0.15l0.07 -0.27c0.07,-0.31 0.09,-0.88 0.06,-1.21 -0.03,-0.24 0.01,-0.3 -0.05,-0.6 -0.02,-0.09 -0.03,-0.17 -0.05,-0.26l-0.18 -0.64c-0.07,-0.18 -0.14,-0.41 -0.27,-0.56l-0.31 -0.49c-0.02,-0.05 0,-0.02 -0.03,-0.05l-0.15 -0.17c-0.1,-0.15 -0.22,-0.26 -0.35,-0.39 -0.05,-0.05 -0.11,-0.11 -0.16,-0.16 -0.09,-0.08 -0.2,-0.13 -0.28,-0.21 -0.11,-0.1 -0.25,-0.2 -0.38,-0.26l-0.25 -0.17c-0.12,-0.05 -0.23,-0.14 -0.36,-0.18 -0.14,-0.03 -0.03,-0.02 -0.13,-0.05l-0.12 -0.04c-0.07,-0.04 -0.18,-0.04 -0.27,-0.07l-0.53 -0.09c-0.07,-0.01 -0.09,-0.02 -0.13,-0.03 -0.21,-0.05 -1.03,-0.04 -1.25,0l-0.84 0.12c-0.1,0.04 -0.15,0.01 -0.25,0.07l-0.67 0.32c-0.07,0.03 -0.14,0.09 -0.19,0.12 -0.03,0.07 -0.22,0.18 -0.29,0.22 -0.04,0.03 -0.09,0.07 -0.14,0.1 -0.07,0.04 -0.1,0.06 -0.16,0.11 -0.05,0.05 -0.08,0.05 -0.14,0.1 -0.12,0.08 -0.04,0.06 -0.22,0.17 -0.06,0.03 -0.07,0.06 -0.14,0.1l-0.18 0.08c-0.05,0.02 -0.01,0.01 -0.09,0.03 -0.2,0.05 -0.07,0.04 -0.18,0.06 -0.08,0.02 -0.14,0 -0.23,0.03 -0.11,0.03 -0.09,0 -0.19,-0.01 -0.1,-0.02 -0.12,0 -0.21,-0.04 -0.06,-0.03 -0.01,-0.01 -0.09,-0.03l-0.2 -0.11c-0.16,-0.08 -0.26,-0.23 -0.35,-0.35 -0.08,-0.11 -0.15,-0.35 -0.15,-0.48 -0.01,-0.23 -0.06,0.07 -0.06,-0.44 -0.01,-0.33 -0.05,-0.26 -0.06,-0.45 0,-0.08 0.01,-0.18 -0.02,-0.24 -0.04,-0.08 -0.03,0.04 -0.04,-0.2 -0.01,-0.16 -0.04,-0.07 -0.06,-0.19 -0.03,-0.21 -0.04,-0.07 -0.06,-0.2 -0.04,-0.2 -0.16,-0.37 -0.18,-0.45 -0.05,-0.17 -0.11,-0.15 -0.12,-0.3 -0.05,-0.12 -0.11,-0.19 -0.15,-0.26 -0.1,-0.17 -0.24,-0.35 -0.37,-0.49 -0.12,-0.11 -0.13,-0.16 -0.25,-0.26 -0.04,-0.04 -0.03,-0.04 -0.07,-0.07 -0.05,-0.06 -0.05,-0.03 -0.09,-0.07l-0.11 -0.12c0,0 -0.02,-0.01 -0.02,-0.01 -0.11,-0.08 0.01,0.03 -0.08,-0.06 0,-0.01 0,-0.01 -0.01,-0.01 -0.08,-0.1 -0.03,-0.04 -0.11,-0.1 0,-0.01 0,-0.01 -0.01,-0.01l-0.23 -0.2c-0.14,-0.13 -0.17,-0.1 -0.27,-0.17 -0.18,-0.14 -0.1,-0.02 -0.2,-0.1l-0.2 -0.11c-0.05,-0.02 -0.05,-0.02 -0.11,-0.04 -0.1,-0.03 -0.04,-0.02 -0.11,-0.05 -0.06,-0.02 -0.05,0 -0.12,-0.03l-0.21 -0.09c-0.07,-0.03 -0.05,0 -0.12,-0.04 -0.14,-0.08 -0.31,-0.1 -0.33,-0.1 -0.07,-0.03 -0.01,-0.03 -0.12,-0.04 -0.05,-0.01 -0.09,-0.01 -0.14,-0.02 -0.08,-0.01 -0.06,-0.02 -0.12,-0.03 -0.13,-0.05 -1.01,-0.05 -1.19,-0.03l-0.36 0.08c-0.04,0.01 -0.06,0.03 -0.1,0.04 -0.06,0.01 -0.08,0 -0.13,0.02 -0.05,0.02 -0.02,0.03 -0.1,0.05l-0.79 0.29c-0.21,0.05 -0.05,0.01 -0.22,0.09 -0.04,0.02 -0.06,0.03 -0.1,0.03z"/>
 </g>
</svg>
