<?xml version="1.0" encoding="UTF-8"?>
<!DOCTYPE svg PUBLIC "-//W3C//DTD SVG 1.1//EN" "http://www.w3.org/Graphics/SVG/1.1/DTD/svg11.dtd">
<!-- Creator: CorelDRAW 2019 (64-Bit) -->
<svg xmlns="http://www.w3.org/2000/svg" xml:space="preserve" width="203px" height="222px" version="1.1" style="shape-rendering:geometricPrecision; text-rendering:geometricPrecision; image-rendering:optimizeQuality; fill-rule:evenodd; clip-rule:evenodd"
viewBox="0 0 26.21 28.62"
 xmlns:xlink="http://www.w3.org/1999/xlink"
 xmlns:xodm="http://www.corel.com/coreldraw/odm/2003">
 <defs>
  <style type="text/css">
   <![CDATA[
    .fil0 {fill:#9397A0;fill-rule:nonzero}
   ]]>
  </style>
 </defs>
 <g id="Layer_x0020_1">
  <metadata id="CorelCorpID_0Corel-Layer"/>
  <path class="fil0" d="M11.19 26.04c0.71,0 1.29,0.58 1.29,1.29 0,0.71 -0.58,1.29 -1.29,1.29l-6.6 0c-1.26,0 -2.41,-0.52 -3.24,-1.35 -0.83,-0.83 -1.35,-1.97 -1.35,-3.24l0 -19.44c0,-1.26 0.52,-2.41 1.35,-3.24l0 0c0.83,-0.83 1.98,-1.35 3.24,-1.35l6.6 0c0.71,0 1.29,0.58 1.29,1.29 0,0.71 -0.58,1.29 -1.29,1.29l-6.6 0c-0.55,0 -1.06,0.22 -1.42,0.59l0 0 -0.01 0c-0.36,0.36 -0.58,0.86 -0.58,1.42l0 19.44c0,0.55 0.22,1.06 0.59,1.42 0.36,0.37 0.87,0.59 1.42,0.59l6.6 0zm8.92 -4.84c-0.5,0.5 -1.32,0.5 -1.82,0 -0.5,-0.5 -0.5,-1.32 0,-1.82l3.52 -3.52 -12.27 0c-0.71,0 -1.29,-0.58 -1.29,-1.29 0,-0.71 0.58,-1.29 1.29,-1.29l12.27 0 -3.52 -3.51c-0.5,-0.51 -0.5,-1.32 0,-1.82 0.5,-0.51 1.32,-0.51 1.82,0l5.7 5.7c0.09,0.08 0.16,0.17 0.22,0.27 0.11,0.19 0.18,0.41 0.18,0.65 0,0.24 -0.07,0.46 -0.18,0.66 -0.06,0.1 -0.13,0.19 -0.22,0.27l-5.7 5.7z"/>
 </g>
</svg>
