<?xml version="1.0" encoding="UTF-8"?>
<!DOCTYPE svg PUBLIC "-//W3C//DTD SVG 1.1//EN" "http://www.w3.org/Graphics/SVG/1.1/DTD/svg11.dtd">
<!-- Creator: CorelDRAW 2019 (64-Bit) -->
<svg xmlns="http://www.w3.org/2000/svg" xml:space="preserve" width="195px" height="197px" version="1.1" style="shape-rendering:geometricPrecision; text-rendering:geometricPrecision; image-rendering:optimizeQuality; fill-rule:evenodd; clip-rule:evenodd"
viewBox="0 0 24.29 24.47"
 xmlns:xlink="http://www.w3.org/1999/xlink"
 xmlns:xodm="http://www.corel.com/coreldraw/odm/2003">
 <defs>
  <style type="text/css">
   <![CDATA[
    .fil0 {fill:#9397A0;fill-rule:nonzero}
   ]]>
  </style>
 </defs>
 <g id="Layer_x0020_1">
  <metadata id="CorelCorpID_0Corel-Layer"/>
  <path class="fil0" d="M9.6 17.88l6.03 0 6.8 0 0 -2.41 -0.92 0 0 0 -0.93 0 -17.79 0 0 0 -0.92 0 0 2.41 6.8 0 0.93 0zm6.03 1.87l0 1.24c0,0.96 -0.39,1.83 -1.02,2.46 -0.63,0.63 -1.5,1.02 -2.46,1.02 -0.96,0 -1.83,-0.39 -2.46,-1.02 -0.63,-0.63 -1.02,-1.5 -1.02,-2.46l0 0 0 -1.24 -6.84 0c-0.5,0 -0.96,-0.21 -1.29,-0.54l0 0c-0.33,-0.33 -0.54,-0.79 -0.54,-1.29l0 -2.49c0,-0.5 0.21,-0.96 0.54,-1.29 0.33,-0.33 0.78,-0.54 1.29,-0.54l0.96 0 0 -4.24 -0.01 0c0,-2.58 1.05,-4.92 2.75,-6.62 1.69,-1.69 4.03,-2.74 6.62,-2.74 2.58,0 4.92,1.05 6.62,2.74 1.69,1.7 2.74,4.04 2.74,6.62l0 4.24 0.96 0c0.5,0 0.96,0.21 1.29,0.54l0 0c0.33,0.33 0.53,0.79 0.53,1.29l0 2.49c0,0.5 -0.2,0.95 -0.53,1.29l-0.01 0c-0.33,0.33 -0.78,0.54 -1.28,0.54l-6.84 0zm-10.99 -6.15l15 0 0 -4.24c0,-2.07 -0.83,-3.94 -2.19,-5.3 -1.36,-1.35 -3.23,-2.19 -5.3,-2.19 -2.07,0 -3.95,0.84 -5.31,2.19 -1.35,1.36 -2.19,3.23 -2.19,5.3l-0.01 0 0 4.24zm9.12 6.15l-3.23 0 0 1.24 0 0c0,0.44 0.18,0.85 0.48,1.14 0.29,0.29 0.69,0.47 1.14,0.47 0.44,0 0.85,-0.18 1.14,-0.47 0.29,-0.29 0.47,-0.7 0.47,-1.14l0 -1.24z"/>
 </g>
</svg>
