<?xml version="1.0" encoding="UTF-8"?>
<!DOCTYPE svg PUBLIC "-//W3C//DTD SVG 1.1//EN" "http://www.w3.org/Graphics/SVG/1.1/DTD/svg11.dtd">
<!-- Creator: CorelDRAW 2019 (64-Bit) -->
<svg xmlns="http://www.w3.org/2000/svg" xml:space="preserve" width="265px" height="212px" version="1.1" style="shape-rendering:geometricPrecision; text-rendering:geometricPrecision; image-rendering:optimizeQuality; fill-rule:evenodd; clip-rule:evenodd"
viewBox="0 0 126.09 100.87"
 xmlns:xlink="http://www.w3.org/1999/xlink"
 xmlns:xodm="http://www.corel.com/coreldraw/odm/2003">
 <defs>
  <style type="text/css">
   <![CDATA[
    .fil0 {fill:#9397A0}
   ]]>
  </style>
 </defs>
 <g id="Layer_x0020_1">
  <metadata id="CorelCorpID_0Corel-Layer"/>
  <g id="_2154973573872">
   <g>
    <g>
     <path class="fil0" d="M63.04 37.83c-10.44,0 -18.91,8.47 -18.91,18.91 0,10.45 8.47,18.91 18.91,18.91 10.45,0 18.92,-8.46 18.92,-18.91 0,-10.44 -8.47,-18.91 -18.92,-18.91zm50.44 -18.92l-15.13 0c-2.08,0 -4.32,-1.61 -4.98,-3.59l-3.91 -11.73c-0.66,-1.98 -2.9,-3.59 -4.98,-3.59l-42.87 0c-2.08,0 -4.32,1.61 -4.98,3.59l-3.91 11.74c-0.66,1.97 -2.9,3.58 -4.98,3.58l-15.13 0c-6.94,0 -12.61,5.68 -12.61,12.61l0 56.74c0,6.94 5.67,12.61 12.61,12.61l100.87 0c6.94,0 12.61,-5.67 12.61,-12.61l0 -56.74c0,-6.93 -5.67,-12.61 -12.61,-12.61zm-50.44 69.35c-17.4,0 -31.52,-14.11 -31.52,-31.52 0,-17.41 14.12,-31.52 31.52,-31.52 17.41,0 31.53,14.11 31.53,31.52 0,17.41 -14.12,31.52 -31.53,31.52zm46.03 -47.92c-2.44,0 -4.42,-1.97 -4.42,-4.41 0,-2.44 1.98,-4.42 4.42,-4.42 2.44,0 4.41,1.98 4.41,4.42 0,2.44 -1.97,4.41 -4.41,4.41z"/>
    </g>
   </g>
   <g>
   </g>
   <g>
   </g>
   <g>
   </g>
   <g>
   </g>
   <g>
   </g>
   <g>
   </g>
   <g>
   </g>
   <g>
   </g>
   <g>
   </g>
   <g>
   </g>
   <g>
   </g>
   <g>
   </g>
   <g>
   </g>
   <g>
   </g>
   <g>
   </g>
  </g>
 </g>
</svg>
