<?xml version="1.0" encoding="UTF-8"?>
<!DOCTYPE svg PUBLIC "-//W3C//DTD SVG 1.1//EN" "http://www.w3.org/Graphics/SVG/1.1/DTD/svg11.dtd">
<!-- Creator: CorelDRAW 2019 (64-Bit) -->
<svg xmlns="http://www.w3.org/2000/svg" xml:space="preserve" width="228px" height="325px" version="1.1" style="shape-rendering:geometricPrecision; text-rendering:geometricPrecision; image-rendering:optimizeQuality; fill-rule:evenodd; clip-rule:evenodd"
viewBox="0 0 117656.53 167860.43"
 xmlns:xlink="http://www.w3.org/1999/xlink"
 xmlns:xodm="http://www.corel.com/coreldraw/odm/2003">
 <defs>
  <style type="text/css">
   <![CDATA[
    .fil0 {fill:#9397A0}
   ]]>
  </style>
 </defs>
 <g id="Layer_x0020_1">
  <metadata id="CorelCorpID_0Corel-Layer"/>
  <path class="fil0" d="M53550.74 100664.44c528.54,387.72 1288.14,1510.04 1765.47,2096.5l5373.85 6211.48c1285.7,1447.25 841.9,3897.33 841.29,6882.06 0,1152.19 -89.01,2723.81 38.4,3824.79 440.76,3818.7 1566.74,3126.16 -7504.49,3126.16 -1297.89,0 -514.52,-983.93 -514.52,-2059.31l0 -20081.68zm-36815.91 -8350.65l16700.7 0c1558.2,0 2832.32,1274.72 2832.32,2832.32l0 16701.3c0,1557.6 -1274.12,2831.71 -2832.32,2831.71l-16700.7 0c-1557.59,0 -2832.32,-1274.11 -2832.32,-2831.71l0 -16701.3c0,-1557.6 1274.73,-2832.32 2832.32,-2832.32zm3930.26 5263.5l8840.18 0c824.83,0 1499.07,674.86 1499.07,1499.07l0 8840.19c0,824.82 -674.24,1499.06 -1499.07,1499.06l-8840.18 0c-824.82,0 -1499.07,-674.24 -1499.07,-1499.06l0 -8840.19c0,-824.21 674.25,-1499.07 1499.07,-1499.07zm7789.19 -83705.87l4653.88 0c481.6,0 876.03,394.43 876.03,876.03l0 20967.47c0,482.21 -394.43,876.03 -876.03,876.03l-4653.88 0c-481.61,0 -876.03,-393.82 -876.03,-876.03l0 -20967.47c0,-481.6 394.42,-876.03 876.03,-876.03zm-13902.52 0l4653.89 0c481.6,0 876.03,394.43 876.03,876.03l0 34859.01c0,481.6 -394.43,876.03 -876.03,876.03l-4653.89 0c-481.6,0 -876.03,-394.43 -876.03,-876.03l0 -34859.01c0,-481.6 394.43,-876.03 876.03,-876.03zm52901.49 61305.18l0 -66049.28c0,-702.9 0,-2331.21 0,-3233.46 742.53,-20.12 3188.34,-53.04 4094.86,51.82 1314.35,152.41 2993.87,1052.82 3826.62,1837.41 1269.85,1196.7 1750.84,1887.4 2372.66,3291.37 399.91,902.25 518.79,3741.88 518.79,5145.24l0 69512.57c0,984.54 78.64,93.88 -257.26,772.39 -7.32,-4.26 -10555.67,-10601.39 -10555.67,-11328.06zm-27032.63 -514.53c0,-2765.26 -53.04,-4680.7 2244.03,-6766.84 1359.47,-1235.1 3106.65,-1729.51 4964.18,-1729.51 3407.81,0 5028.2,1989.21 6763.8,3792.48l10164.29 10946.44c988.81,978.45 1482.61,1756.33 2443.38,2706.13l7855.03 8106.8c299.32,317.01 344.43,377.97 602.92,684.61 34.14,40.85 82.91,99.37 117.04,140.22l232.27 282.86c48.16,57.31 186.55,222.52 235.32,279.21l8981 9555.27c5858.51,5854.24 4393.57,6766.85 8757.88,2450.09 510.26,-505.38 528.55,-602.92 704.12,-1355.81 -1955.68,-1308.86 -6328.52,-6482.15 -8173.25,-8303.71 -1063.8,-1050.38 -2125.15,-1592.34 -2125.15,-3538.88l0 -40162.75c0,-2279.39 3042.03,2487.28 3800.4,3408.42l3983.3 5026.97c2270.24,2411.68 2200.14,2747.59 4018.65,4992.23l4007.68 5003.81c2384.24,3051.78 5151.94,5943.24 7282.59,9193.76l2371.44 4322.86c566.95,1346.66 538.91,651.69 1005.27,2599.44 793.74,3318.8 1078.43,4007.68 1078.43,7932.45l0 66937.51c0,593.16 -179.23,772.39 -772.4,772.39l-39905.48 0c-2128.81,0 -4330.78,-295.05 -5951.78,-741.91 -3451.09,-951.63 -6546.77,-2164.78 -9354.09,-4290.55 -2037.37,-1542.35 -3576.68,-3176.76 -5214.74,-5083.66 -1128.42,-1314.36 -3151.77,-4983.69 -3758.34,-6540.07 -1948.98,-5002.59 -1724.02,-9927.75 -1724.02,-15782.6 0,-593.16 179.22,-772.39 772.39,-772.39l16476.96 0c901.03,0 811.42,821.16 1142.44,1689.27 1549.67,4063.76 2636.02,6304.14 5189.14,10000.91 1967.87,2850 6379.12,7265.52 9262.65,9016.36 1913.61,1161.34 5862.16,3823.57 8091.56,4008.9 313.96,-593.17 1802.05,-4446 1802.05,-5148.9 0,-363.94 -1960.55,-1122.32 -2322.06,-1282.04 -2593.35,-1146.1 -2660.41,-1417.38 -4778.25,-2687.84 -1096.1,-657.79 -1249.73,-938.82 -2098.94,-1763.04 -721.8,-701.68 -1188.16,-916.87 -1940.44,-1664.28 -3867.46,-3841.86 -7082.63,-9288.25 -8270.79,-14642.59 -260.31,-1172.31 -613.89,-2097.73 -669.37,-3192.61 -121.31,-2413.51 -258.48,-4483.19 -258.48,-7207 0,-11527.41 -102.42,-7198.46 -6844.27,-15812.47 -2839.63,-3627.88 -6563.84,-7655.68 -9411.4,-11184.19 -410.88,-509.04 -413.93,-606.58 -926.63,-1133.3 -1363.73,-1400.31 -2233.06,-2740.87 -3490.11,-4233.24 -1419.2,-1685.61 -6360.22,-6480.32 -6360.22,-8829.21zm-5921.9 -1544.79c0,5707.93 2918.27,8568.29 5721.33,11785.29 1444.21,1657.57 7408.78,8044.62 7408.78,9840.57l0 27289.9c0,593.77 -178.62,772.39 -772.39,772.39l-31409.14 0c-2884.13,0 -4983.69,-537.08 -6627.85,-1867.89 -1175.96,-952.24 -2898.16,-3588.87 -2898.16,-5598.19l0 -101951.36c0,-3440.73 3798.58,-7466.09 7208.83,-7466.09l33726.32 0c593.77,0 772.39,179.23 772.39,772.4l0 52777.73c0,1662.45 -4174.1,-391.38 -9080.37,4307.01 -1185.72,1135.12 -2132.47,2272.07 -2803.67,3890.63 -748.01,1803.88 -1246.07,2753.07 -1246.07,5447.61zm19001.42 -67223.42l8051.33 0c0,377.36 -19.51,577.93 -20.12,800.44 0,20116.43 340.78,40457.81 -154.24,60535.83 -20.12,816.9 -87.17,1755.72 -1043.68,648.64l-2728.07 -2935.96c-2351.94,-2353.15 -1431.4,-1679.52 -4041.82,-3427.92 10.36,-484.05 -12.8,-1006.49 -12.8,-2300.12 0,-8519.52 -50.6,-47886.1 -50.6,-53320.91zm-53500.14 10068.58l0 96287.93c0,2555.56 154.24,5153.78 915.05,7066.18 2479.35,6230.37 7476.45,9437.61 14531.65,9411.4l19824.41 -0.61c5440.91,-4.27 3585.21,-910.17 3853.45,8247.01 76.2,2601.89 976.01,7478.28 1992.25,9850.33 2190.39,5108.06 2467.77,5510.41 6033.47,9928.98 2709.78,3357.82 6368.76,5918.24 10150.88,7870.87 4230.8,2183.68 10006.39,3235.9 14785.86,3235.9l42479.93 0c1387.51,0 3089.58,-1386.9 3089.58,-2832.32l0 -71314.62c0,-5609.78 -1531.98,-10253.91 -3429.14,-14077.48 -1210.72,-2440.94 -1421.04,-2308.65 -2476.91,-3960.13l-26427.27 -33302.02c-846.77,-1058.92 -1140.61,-1405.19 -1147.93,-3228.58 -16.46,-3899.16 210.32,-23549.23 -165.21,-26352.29 -334.68,-2498.85 -481.6,-3062.15 -1470.41,-5223.27 -388.94,-849.21 -485.87,-751.67 -908.34,-1408.84 -2426.31,-3777.85 -6818.67,-6160.88 -11603.62,-6160.88l-55867.92 0c-6121.87,0 -11072.64,3690.06 -13210.59,9187.67 -714.48,1837.41 -949.19,4311.27 -949.19,6774.77z"/>
 </g>
</svg>
