<?xml version="1.0" encoding="UTF-8"?>
<!DOCTYPE svg PUBLIC "-//W3C//DTD SVG 1.1//EN" "http://www.w3.org/Graphics/SVG/1.1/DTD/svg11.dtd">
<!-- Creator: CorelDRAW 2019 (64-Bit) -->
<svg xmlns="http://www.w3.org/2000/svg" xml:space="preserve" width="357px" height="357px" version="1.1" style="shape-rendering:geometricPrecision; text-rendering:geometricPrecision; image-rendering:optimizeQuality; fill-rule:evenodd; clip-rule:evenodd"
viewBox="0 0 710.43 710.43"
 xmlns:xlink="http://www.w3.org/1999/xlink"
 xmlns:xodm="http://www.corel.com/coreldraw/odm/2003">
 <defs>
  <style type="text/css">
   <![CDATA[
    .fil0 {fill:#9397A0}
   ]]>
  </style>
 </defs>
 <g id="Layer_x0020_1">
  <metadata id="CorelCorpID_0Corel-Layer"/>
  <g id="_2155541316640">
   <g>
    <g>
     <g>
      <path class="fil0" d="M509.14 663.06l-331.53 0c-6.54,0 -11.84,5.31 -11.84,11.84l0 23.69c0,6.53 5.3,11.84 11.84,11.84 6.53,0 11.84,-5.31 11.84,-11.84l0 -11.85 319.69 0c6.53,0 11.84,-5.3 11.84,-11.84 0,-6.53 -5.31,-11.84 -11.84,-11.84z"/>
      <path class="fil0" d="M260.49 296.01c0,6.54 5.3,11.84 11.84,11.84l47.36 0c6.54,0 11.84,-5.3 11.84,-11.84l0 -71.04c0,-6.54 -5.3,-11.84 -11.84,-11.84l-47.36 0c-6.54,0 -11.84,5.3 -11.84,11.84l0 71.04 0 0zm23.68 -59.2l23.68 0 0 47.36 -23.68 0 0 -47.36z"/>
      <path class="fil0" d="M153.93 142.09l-142.09 0c-6.53,0 -11.84,5.3 -11.84,11.84l0 236.8c0,6.54 5.31,11.84 11.84,11.84 6.54,0 11.84,-5.3 11.84,-11.84l0 -224.96 130.25 0c6.53,0 11.84,-5.31 11.84,-11.84 0,-6.54 -5.31,-11.84 -11.84,-11.84z"/>
      <path class="fil0" d="M568.34 580.18c0,6.54 5.31,11.84 11.84,11.84l47.36 0c6.54,0 11.84,-5.3 11.84,-11.84l0 -71.04c0,-6.54 -5.3,-11.84 -11.84,-11.84l-47.36 0c-6.53,0 -11.84,5.3 -11.84,11.84l0 71.04zm23.68 -59.2l23.68 0 0 47.36 -23.68 0 0 -47.36z"/>
      <path class="fil0" d="M59.2 426.26c-58.53,0 -59.2,152.38 -59.2,153.92 0,28.59 20.38,52.5 47.36,58.01l0 60.4c0,6.53 5.31,11.84 11.84,11.84 6.54,0 11.84,-5.31 11.84,-11.84l0 -60.4c26.99,-5.51 47.36,-29.42 47.36,-58.01 0,-1.54 -0.67,-153.92 -59.2,-153.92zm0 189.44c-19.58,0 -35.52,-15.94 -35.52,-35.52 0,-58.99 15.84,-130.24 35.52,-130.24 19.68,0 35.52,71.25 35.52,130.24 0,19.58 -15.93,35.52 -35.52,35.52z"/>
      <path class="fil0" d="M130.24 355.21l-47.36 0c-6.53,0 -11.84,5.31 -11.84,11.84l0 23.68c0,6.54 5.31,11.84 11.84,11.84 6.54,0 11.84,-5.3 11.84,-11.84l0 -11.84 23.68 0 0 59.21c0,6.53 5.31,11.84 11.84,11.84 6.54,0 11.85,-5.31 11.85,-11.84l0 -71.05c0,-6.53 -5.31,-11.84 -11.85,-11.84z"/>
      <path class="fil0" d="M580.18 307.85l47.36 0c6.54,0 11.84,-5.3 11.84,-11.84l0 -71.04c0,-6.54 -5.3,-11.84 -11.84,-11.84l-47.36 0c-6.53,0 -11.84,5.3 -11.84,11.84l0 71.04c0,6.54 5.31,11.84 11.84,11.84zm11.84 -71.04l23.68 0 0 47.36 -23.68 0 0 -47.36z"/>
      <path class="fil0" d="M130.24 213.13l-47.36 0c-6.53,0 -11.84,5.3 -11.84,11.84l0 71.04c0,6.54 5.31,11.84 11.84,11.84l47.36 0c6.54,0 11.85,-5.3 11.85,-11.84l0 -71.04c0,-6.54 -5.31,-11.84 -11.85,-11.84zm-11.84 71.04l-23.68 0 0 -47.36 23.69 0 0 47.36 -0.01 0z"/>
      <path class="fil0" d="M378.89 296.01c0,6.54 5.31,11.84 11.84,11.84l47.37 0c6.53,0 11.84,-5.3 11.84,-11.84l0 -71.04c0,-6.54 -5.31,-11.84 -11.84,-11.84l-47.37 0c-6.53,0 -11.84,5.3 -11.84,11.84l0 71.04zm23.68 -59.2l23.69 0 0 47.36 -23.69 0 0 -47.36z"/>
      <path class="fil0" d="M698.59 142.09l-142.09 0c-6.54,0 -11.84,5.3 -11.84,11.84 0,6.53 5.3,11.84 11.84,11.84l130.24 0 0 475.79c-3.71,-1.33 -7.65,-2.18 -11.83,-2.18 -2.05,0 -4.09,0.18 -6.09,0.53 -8.17,-14.71 -23.72,-24.21 -41.28,-24.21 -17.55,0 -33.1,9.5 -41.27,24.21 -2,-0.35 -4.04,-0.53 -6.09,-0.53 -19.58,0 -35.52,15.94 -35.52,35.52 0,19.59 15.94,35.53 35.52,35.53l94.72 0c19.59,0 35.53,-15.94 35.53,-35.53l0 -520.97c0,-6.54 -5.31,-11.84 -11.84,-11.84zm-23.69 544.65l-94.72 0c-6.52,0 -11.84,-5.31 -11.84,-11.84 0,-6.52 5.32,-11.84 11.84,-11.84 2.27,0 4.43,0.66 6.42,1.93 3.24,2.09 7.29,2.47 10.87,1.02 3.57,-1.44 6.22,-4.55 7.08,-8.3 2.5,-10.79 11.96,-18.33 22.99,-18.33 11.04,0 20.5,7.54 23,18.33 0.86,3.75 3.5,6.86 7.08,8.3 3.56,1.45 7.62,1.07 10.87,-1.02 7.71,-4.97 18.25,1.12 18.25,9.91 0,6.53 -5.31,11.84 -11.84,11.84z"/>
      <path class="fil0" d="M390.73 165.77l47.37 0c6.53,0 11.84,-5.31 11.84,-11.84l0 -71.05c0,-6.53 -5.31,-11.84 -11.84,-11.84l-47.37 0c-6.53,0 -11.84,5.31 -11.84,11.84l0 71.05c0,6.53 5.31,11.84 11.84,11.84zm11.84 -71.05l23.69 0 0 47.37 -23.69 0 0 -47.37z"/>
      <path class="fil0" d="M378.89 438.1c0,6.53 5.31,11.84 11.84,11.84l47.37 -0.01c6.53,0 11.84,-5.3 11.84,-11.83l0 -71.05c0,-6.53 -5.31,-11.84 -11.84,-11.84l-47.37 0c-6.53,0 -11.84,5.31 -11.84,11.84l0 71.05zm23.68 -59.21l23.69 0 0 47.37 -23.69 0 0 -47.37z"/>
      <path class="fil0" d="M272.33 165.77l47.36 0c6.54,0 11.84,-5.31 11.84,-11.84l0 -71.05c0,-6.53 -5.3,-11.84 -11.84,-11.84l-47.36 0c-6.54,0 -11.84,5.31 -11.84,11.84l0 71.05c0,6.53 5.3,11.84 11.84,11.84zm11.84 -71.05l23.68 0 0 47.37 -23.68 0 0 -47.37z"/>
      <path class="fil0" d="M346.81 571.77c-2.13,2.25 -3.44,5.33 -3.44,8.41 0,3.08 1.31,6.16 3.44,8.41 2.25,2.13 5.32,3.43 8.4,3.43 3.08,0 6.16,-1.3 8.41,-3.43 2.13,-2.25 3.43,-5.33 3.43,-8.41 0,-3.08 -1.3,-6.16 -3.43,-8.41 -4.5,-4.38 -12.31,-4.38 -16.81,0z"/>
      <path class="fil0" d="M260.49 438.1c0,6.53 5.3,11.84 11.84,11.84l47.36 -0.01c6.54,0 11.84,-5.3 11.84,-11.83l0 -71.05c0,-6.53 -5.3,-11.84 -11.84,-11.84l-47.36 0c-6.54,0 -11.84,5.31 -11.84,11.84l0 71.05 0 0zm23.68 -59.21l23.68 0 0 47.37 -23.68 0 0 -47.37z"/>
      <path class="fil0" d="M236.81 509.14c0,6.53 5.3,11.84 11.84,11.84l35.52 0 0 106.56c0,6.54 5.31,11.84 11.84,11.84 6.54,0 11.84,-5.3 11.84,-11.84l0 -106.56 94.72 0 0 106.56c0,6.54 5.31,11.84 11.84,11.84 6.54,0 11.85,-5.3 11.85,-11.84l0 -106.56 35.51 0c6.54,0 11.84,-5.31 11.84,-11.84 0,-6.54 -5.3,-11.84 -11.84,-11.84l-213.12 0c-6.54,0 -11.84,5.3 -11.84,11.84z"/>
      <path class="fil0" d="M568.34 438.1c0,6.53 5.31,11.84 11.84,11.84l47.36 -0.01c6.54,0 11.84,-5.3 11.84,-11.83l0 -71.05c0,-6.53 -5.3,-11.84 -11.84,-11.84l-47.36 0c-6.53,0 -11.84,5.31 -11.84,11.84l0 71.05zm23.68 -59.21l23.68 0 0 47.37 -23.68 0 0 -47.37z"/>
      <path class="fil0" d="M509.14 0l-307.85 0c-6.54,0 -11.84,5.31 -11.84,11.84l0 615.7c0,6.54 5.3,11.84 11.84,11.84 6.53,0 11.84,-5.3 11.84,-11.84l0 -603.86 284.17 0 0 603.86c0,6.54 5.3,11.84 11.84,11.84 6.53,0 11.84,-5.3 11.84,-11.84l0 -615.7c0,-6.53 -5.31,-11.84 -11.84,-11.84z"/>
     </g>
    </g>
   </g>
   <g>
   </g>
   <g>
   </g>
   <g>
   </g>
   <g>
   </g>
   <g>
   </g>
   <g>
   </g>
   <g>
   </g>
   <g>
   </g>
   <g>
   </g>
   <g>
   </g>
   <g>
   </g>
   <g>
   </g>
   <g>
   </g>
   <g>
   </g>
   <g>
   </g>
  </g>
 </g>
</svg>
