<?xml version="1.0" encoding="UTF-8"?>
<!DOCTYPE svg PUBLIC "-//W3C//DTD SVG 1.1//EN" "http://www.w3.org/Graphics/SVG/1.1/DTD/svg11.dtd">
<!-- Creator: CorelDRAW 2019 (64-Bit) -->
<svg xmlns="http://www.w3.org/2000/svg" xml:space="preserve" width="420px" height="426px" version="1.1" style="shape-rendering:geometricPrecision; text-rendering:geometricPrecision; image-rendering:optimizeQuality; fill-rule:evenodd; clip-rule:evenodd"
viewBox="0 0 113.45 114.91"
 xmlns:xlink="http://www.w3.org/1999/xlink"
 xmlns:xodm="http://www.corel.com/coreldraw/odm/2003">
 <defs>
  <style type="text/css">
   <![CDATA[
    .fil1 {fill:#BEE890}
    .fil0 {fill:#C7EB9F}
    .fil2 {fill:white;fill-rule:nonzero}
   ]]>
  </style>
 </defs>
 <g id="Layer_x0020_1">
  <metadata id="CorelCorpID_0Corel-Layer"/>
  <path class="fil0" d="M0 57.45c0,-39.1 11.92,-57.45 56.73,-57.45 44.8,0 56.72,18.35 56.72,57.45 0,39.1 -11.92,57.46 -56.72,57.46 -44.81,0 -56.73,-18.36 -56.73,-57.46z"/>
  <g id="_2154933845808">
   <path class="fil1" d="M62.54 113.17l5.57 -8.03 8.03 5.58 -2.12 3.05c-2.9,0.43 -5.99,0.73 -9.29,0.92l-2.19 -1.52z"/>
   <polygon class="fil1" points="46.49,102.01 52.07,93.99 60.09,99.57 54.51,107.59 "/>
   <path class="fil1" d="M38.43 113.61l2.48 -3.57 6.59 4.57c-3.22,-0.21 -6.24,-0.55 -9.07,-1z"/>
   <polygon class="fil1" points="30.44,90.86 36.02,82.84 44.04,88.41 38.47,96.44 "/>
   <path class="fil1" d="M19.29 106.91l5.58 -8.02 8.02 5.57 -4.67 6.72c-2.55,-0.84 -4.9,-1.83 -7.05,-2.96l-1.88 -1.31z"/>
   <polygon class="fil1" points="14.39,79.71 19.97,71.69 27.99,77.26 22.42,85.29 "/>
   <path class="fil1" d="M5.79 92.09l3.03 -4.36 8.02 5.58 -5.25 7.56c-2.33,-2.56 -4.24,-5.49 -5.8,-8.78z"/>
   <path class="fil1" d="M0.21 65.88l3.71 -5.34 8.03 5.57 -5.58 8.02 -5.87 -4.07c-0.12,-1.36 -0.21,-2.76 -0.29,-4.18z"/>
   <path class="fil1" d="M89.74 108.27l5.57 -8.02 4.23 2.93c-2.51,2.27 -5.42,4.2 -8.78,5.8l-1.02 -0.71z"/>
   <polygon class="fil1" points="73.69,97.12 79.26,89.09 87.29,94.67 81.71,102.69 "/>
   <polygon class="fil1" points="57.64,85.97 63.22,77.94 71.24,83.52 65.66,91.54 "/>
   <polygon class="fil1" points="41.59,74.81 47.17,66.79 55.19,72.37 49.62,80.39 "/>
   <polygon class="fil1" points="25.55,63.66 31.12,55.64 39.15,61.22 33.57,69.24 "/>
   <polygon class="fil1" points="9.5,52.51 15.07,44.49 23.1,50.06 17.52,58.09 "/>
   <path class="fil1" d="M1.83 35.28l5.22 3.63 -5.57 8.03 -1.09 -0.76c0.3,-3.88 0.77,-7.52 1.44,-10.9z"/>
   <path class="fil1" d="M100.89 92.22l5.57 -8.02 3.39 2.35c-1.08,3.32 -2.43,6.34 -4.08,9.07l-4.88 -3.4z"/>
   <polygon class="fil1" points="84.84,81.07 90.42,73.05 98.44,78.62 92.86,86.65 "/>
   <polygon class="fil1" points="68.79,69.92 74.37,61.9 82.39,67.47 76.82,75.49 "/>
   <polygon class="fil1" points="52.75,58.77 58.32,50.74 66.34,56.32 60.77,64.34 "/>
   <polygon class="fil1" points="36.7,47.62 42.27,39.59 50.3,45.17 44.72,53.19 "/>
   <polygon class="fil1" points="20.65,36.46 26.23,28.44 34.25,34.02 28.67,42.04 "/>
   <path class="fil1" d="M4.84 24.97l5.34 -7.68 8.02 5.57 -5.57 8.03 -7.95 -5.52c0.05,-0.14 0.11,-0.27 0.16,-0.4z"/>
   <path class="fil1" d="M112.04 76.17l0.25 -0.35c-0.03,0.16 -0.05,0.32 -0.08,0.47l-0.17 -0.12z"/>
   <polygon class="fil1" points="95.99,65.02 101.57,57 109.59,62.58 104.01,70.6 "/>
   <polygon class="fil1" points="79.94,53.87 85.52,45.85 93.54,51.42 87.97,59.45 "/>
   <polygon class="fil1" points="63.9,42.72 69.47,34.7 77.5,40.27 71.92,48.3 "/>
   <polygon class="fil1" points="47.85,31.57 53.43,23.55 61.45,29.12 55.87,37.14 "/>
   <polygon class="fil1" points="31.8,20.42 37.38,12.39 45.4,17.97 39.83,25.99 "/>
   <path class="fil1" d="M26.02 4.5l3.33 2.32 -5.57 8.02 -7.4 -5.14c2.78,-2.07 5.98,-3.8 9.64,-5.2z"/>
   <path class="fil1" d="M107.14 48.98l5.43 -7.81c0.46,3.78 0.73,7.83 0.83,12.16l-6.26 -4.35z"/>
   <polygon class="fil1" points="91.1,37.82 96.67,29.8 104.7,35.38 99.12,43.4 "/>
   <polygon class="fil1" points="75.05,26.67 80.62,18.65 88.65,24.23 83.07,32.25 "/>
   <polygon class="fil1" points="59,15.52 64.58,7.5 72.6,13.07 67.02,21.1 "/>
   <path class="fil1" d="M42.95 4.37l2.74 -3.94c2.58,-0.21 5.29,-0.35 8.14,-0.4l2.72 1.89 -5.57 8.03 -8.03 -5.58z"/>
   <path class="fil1" d="M102.25 21.78l2.66 -3.84c1.75,2.61 3.19,5.52 4.36,8.71l-7.02 -4.87z"/>
   <path class="fil1" d="M86.2 10.63l3.58 -5.16c3.16,1.41 5.94,3.1 8.38,5.07l-3.94 5.66 -8.02 -5.57z"/>
   <path class="fil1" d="M80.1 2.28l-1.92 2.77 -6 -4.16c2.81,0.35 5.45,0.82 7.92,1.39z"/>
  </g>
  <path class="fil2" d="M27.38 41.75l-7.16 0 0 31.41 7.16 0 0 -31.41zm33.9 15.38c0,-9.98 -2.82,-15.38 -16.54,-15.38l-10.25 0 0 31.41 9.88 0c13.26,0 16.91,-4.95 16.91,-16.03zm-7.39 0c0,7.53 -1.44,10.81 -9.01,10.81l-3.23 0 0 -20.97 3.6 0c7.62,0 8.64,3.65 8.64,10.16zm32.14 3.37c2.86,-1.25 5.77,-3.51 5.77,-9.1 0,-6.6 -4.01,-9.65 -10.9,-9.65l-13.85 0 0 31.41 7.16 0 0 -11.37 4.66 0 6.01 11.37 8.36 0 -7.21 -12.66zm-1.52 -8.73c0,3.1 -1.67,4.94 -5.55,4.99l-4.75 0 0 -9.79 5.45 0c3.41,0 4.85,1.8 4.85,4.8z"/>
 </g>
</svg>
