<?xml version="1.0" encoding="UTF-8"?>
<!DOCTYPE svg PUBLIC "-//W3C//DTD SVG 1.1//EN" "http://www.w3.org/Graphics/SVG/1.1/DTD/svg11.dtd">
<!-- Creator: CorelDRAW 2019 (64-Bit) -->
<svg xmlns="http://www.w3.org/2000/svg" xml:space="preserve" width="714px" height="537px" version="1.1" style="shape-rendering:geometricPrecision; text-rendering:geometricPrecision; image-rendering:optimizeQuality; fill-rule:evenodd; clip-rule:evenodd"
viewBox="0 0 259.85 195.64"
 xmlns:xlink="http://www.w3.org/1999/xlink"
 xmlns:xodm="http://www.corel.com/coreldraw/odm/2003">
 <defs>
  <style type="text/css">
   <![CDATA[
    .fil2 {fill:#323466}
    .fil3 {fill:#4E508A}
    .fil0 {fill:#515395}
    .fil4 {fill:#AAC495}
    .fil7 {fill:#DCA815}
    .fil6 {fill:#F4BF1A}
    .fil5 {fill:#FFD949}
    .fil8 {fill:#DCA815;fill-rule:nonzero}
    .fil1 {fill:white;fill-rule:nonzero}
   ]]>
  </style>
 </defs>
 <g id="Layer_x0020_1">
  <metadata id="CorelCorpID_0Corel-Layer"/>
  <rect class="fil0" x="30.03" y="42.27" width="229.81" height="153.36" rx="22.3" ry="22.3"/>
  <path class="fil1" d="M60.43 53.08c-0.2,0 -0.38,0.08 -0.51,0.21 -0.14,0.14 -0.13,0.36 -0.13,0.5 0.01,0.13 0,0.41 0.16,0.56 0.13,0.12 0.3,0.19 0.48,0.19l2.91 0c0.38,0 0.7,-0.3 0.73,-0.66 0.04,-0.43 -0.3,-0.8 -0.73,-0.8l-2.91 0zm-8.96 3.83c0.78,-0.44 0.2,-1.73 -0.72,-1.26 -0.89,0.5 -1.7,1.06 -2.5,1.69 -0.75,0.57 0.13,1.74 0.9,1.14 0.74,-0.59 1.51,-1.11 2.32,-1.57zm-6.12 5.66c0.54,-0.81 -0.68,-1.61 -1.2,-0.82 -0.57,0.83 -1.07,1.71 -1.51,2.62 -0.4,0.82 0.87,1.52 1.32,0.62 0.42,-0.85 0.86,-1.64 1.39,-2.42zm-2.97 7.77c0.09,-1.03 -1.37,-1.08 -1.45,-0.19 -0.13,1.03 -0.17,1.97 -0.17,3 0,0.38 0.29,0.69 0.66,0.73 0.43,0.04 0.8,-0.31 0.8,-0.73 0,-0.97 0.03,-1.85 0.16,-2.81zm-0.16 8.64c0,-0.38 -0.29,-0.69 -0.66,-0.73 -0.43,-0.04 -0.8,0.3 -0.8,0.73l0 2.91c0,0.38 0.29,0.69 0.66,0.72 0.43,0.05 0.8,-0.3 0.8,-0.72l0 -2.91zm0 8.74c0,-0.38 -0.29,-0.7 -0.66,-0.73 -0.43,-0.04 -0.8,0.3 -0.8,0.73l0 2.91c0,0.38 0.29,0.69 0.66,0.72 0.43,0.05 0.8,-0.3 0.8,-0.72l0 -2.91zm0 8.73c0,-0.38 -0.29,-0.69 -0.66,-0.72 -0.43,-0.04 -0.8,0.3 -0.8,0.72l0 2.92c0,0.37 0.29,0.69 0.66,0.72 0.43,0.04 0.8,-0.3 0.8,-0.72l0 -2.92zm0 8.74c0,-0.38 -0.29,-0.69 -0.66,-0.72 -0.43,-0.05 -0.8,0.3 -0.8,0.72l0 2.91c0,0.38 0.29,0.7 0.66,0.73 0.43,0.04 0.8,-0.3 0.8,-0.73l0 -2.91zm0 8.74c0,-0.38 -0.29,-0.69 -0.66,-0.73 -0.43,-0.04 -0.8,0.31 -0.8,0.73l0 2.91c0,0.38 0.29,0.69 0.66,0.73 0.43,0.04 0.8,-0.3 0.8,-0.73l0 -2.91zm0 8.74c0,-0.38 -0.29,-0.69 -0.66,-0.73 -0.43,-0.04 -0.8,0.31 -0.8,0.73l0 2.91c0,0.38 0.29,0.69 0.66,0.73 0.43,0.04 0.8,-0.31 0.8,-0.73l0 -2.91zm0 8.74c0,-0.38 -0.29,-0.69 -0.66,-0.73 -0.43,-0.04 -0.8,0.3 -0.8,0.73l0 2.91c0,0.38 0.29,0.69 0.66,0.72 0.43,0.05 0.8,-0.3 0.8,-0.72l0 -2.91zm0 8.73c0,-0.37 -0.29,-0.69 -0.66,-0.72 -0.43,-0.04 -0.8,0.3 -0.8,0.72l0 2.92c0,0.38 0.29,0.69 0.66,0.72 0.43,0.05 0.8,-0.3 0.8,-0.72l0 -2.92zm0 8.74c0,-0.38 -0.29,-0.69 -0.66,-0.72 -0.43,-0.04 -0.8,0.3 -0.8,0.72l0 2.92c0,0.37 0.29,0.69 0.66,0.72 0.43,0.04 0.8,-0.3 0.8,-0.72l0 -2.92zm0 8.74c0,-0.38 -0.29,-0.69 -0.66,-0.72 -0.43,-0.05 -0.8,0.3 -0.8,0.72l0 2.91c0,0.38 0.29,0.7 0.66,0.73 0.43,0.04 0.8,-0.3 0.8,-0.73l0 -2.91zm0.03 8.69c-0.09,-1 -1.53,-0.81 -1.45,0.1 0.04,0.95 0.22,2.05 0.42,2.99 0.16,0.87 1.61,0.7 1.42,-0.32 -0.19,-0.86 -0.35,-1.89 -0.39,-2.77zm2.43 7.97c-0.56,-0.84 -1.71,-0.08 -1.26,0.73 0.51,0.87 1.08,1.7 1.72,2.49 0.64,0.73 1.71,-0.17 1.13,-0.92 -0.59,-0.71 -1.13,-1.51 -1.59,-2.3zm5.71 6.06c-0.79,-0.53 -1.6,0.68 -0.8,1.21 0.85,0.57 1.71,1.04 2.64,1.48 0.81,0.4 1.52,-0.87 0.61,-1.32 -0.86,-0.4 -1.66,-0.85 -2.45,-1.37zm7.81 2.9c-1.01,-0.09 -1.08,1.36 -0.18,1.44 1.03,0.13 1.97,0.15 3,0.15 0.38,0 0.69,-0.29 0.72,-0.66 0.05,-0.43 -0.3,-0.8 -0.72,-0.8 -0.97,0 -1.86,-0.01 -2.82,-0.13zm8.64 0.13c-0.37,0 -0.69,0.3 -0.72,0.66 -0.04,0.44 0.3,0.8 0.72,0.8l2.92 0c0.38,0 0.69,-0.29 0.72,-0.66 0.04,-0.43 -0.3,-0.8 -0.72,-0.8l-2.92 0zm8.74 0c-0.38,0 -0.69,0.3 -0.72,0.66 -0.05,0.44 0.3,0.8 0.72,0.8l2.92 0c0.37,0 0.69,-0.29 0.72,-0.66 0.04,-0.43 -0.3,-0.8 -0.72,-0.8l-2.92 0zm8.74 0c-0.38,0 -0.69,0.3 -0.72,0.66 -0.05,0.44 0.3,0.8 0.72,0.8l2.91 0c0.38,0 0.69,-0.29 0.73,-0.66 0.04,-0.43 -0.3,-0.8 -0.73,-0.8l-2.91 0zm8.74 0c-0.38,0 -0.69,0.3 -0.73,0.66 -0.04,0.44 0.31,0.8 0.73,0.8l2.91 0c0.38,0 0.69,-0.29 0.73,-0.66 0.04,-0.43 -0.31,-0.8 -0.73,-0.8l-2.91 0zm8.74 0c-0.38,0 -0.69,0.3 -0.73,0.66 -0.04,0.44 0.3,0.8 0.73,0.8l2.91 0c0.38,0 0.69,-0.29 0.73,-0.66 0.04,-0.43 -0.31,-0.8 -0.73,-0.8l-2.91 0zm8.74 0c-0.38,0 -0.7,0.3 -0.73,0.66 -0.04,0.44 0.3,0.8 0.73,0.8l2.91 0c0.38,0 0.69,-0.29 0.72,-0.66 0.05,-0.43 -0.3,-0.8 -0.72,-0.8l-2.91 0zm8.73 0c-0.37,0 -0.69,0.3 -0.72,0.66 -0.04,0.44 0.3,0.8 0.72,0.8l2.92 0c0.38,0 0.69,-0.29 0.72,-0.66 0.04,-0.43 -0.3,-0.8 -0.72,-0.8l-2.92 0zm8.74 0c-0.38,0 -0.69,0.3 -0.72,0.66 -0.05,0.44 0.3,0.8 0.72,0.8l2.91 0c0.38,0 0.7,-0.29 0.73,-0.66 0.04,-0.43 -0.3,-0.8 -0.73,-0.8l-2.91 0zm8.74 0c-0.38,0 -0.69,0.3 -0.72,0.66 -0.05,0.44 0.3,0.8 0.72,0.8l2.91 0c0.38,0 0.69,-0.29 0.73,-0.66 0.04,-0.43 -0.3,-0.8 -0.73,-0.8l-2.91 0zm8.74 0c-0.38,0 -0.69,0.3 -0.73,0.66 -0.04,0.44 0.31,0.8 0.73,0.8l2.91 0c0.38,0 0.69,-0.29 0.73,-0.66 0.04,-0.43 -0.31,-0.8 -0.73,-0.8l-2.91 0zm8.74 0c-0.38,0 -0.69,0.3 -0.73,0.66 -0.04,0.44 0.3,0.8 0.73,0.8l2.91 0c0.38,0 0.69,-0.29 0.72,-0.66 0.05,-0.43 -0.3,-0.8 -0.72,-0.8l-2.91 0zm8.74 0c-0.38,0 -0.7,0.3 -0.73,0.66 -0.04,0.44 0.3,0.8 0.73,0.8l2.91 0c0.38,0 0.69,-0.29 0.72,-0.66 0.05,-0.43 -0.3,-0.8 -0.72,-0.8l-2.91 0zm8.73 0c-0.38,0 -0.69,0.3 -0.72,0.66 -0.04,0.44 0.3,0.8 0.72,0.8l2.92 0c0.38,0 0.69,-0.29 0.72,-0.66 0.04,-0.43 -0.3,-0.8 -0.72,-0.8l-2.92 0zm8.74 0c-0.38,0 -0.69,0.3 -0.72,0.66 -0.05,0.44 0.3,0.8 0.72,0.8l2.91 0c0.38,0 0.7,-0.29 0.73,-0.66 0.04,-0.43 -0.3,-0.8 -0.73,-0.8l-2.91 0zm8.74 0c-0.38,0 -0.69,0.3 -0.72,0.66 -0.05,0.44 0.3,0.8 0.72,0.8l2.91 0c0.38,0 0.69,-0.29 0.73,-0.66 0.04,-0.43 -0.3,-0.8 -0.73,-0.8l-2.91 0zm8.74 0c-0.38,0 -0.69,0.3 -0.73,0.66 -0.04,0.44 0.31,0.8 0.73,0.8l2.91 0c0.38,0 0.69,-0.29 0.73,-0.66 0.04,-0.43 -0.31,-0.8 -0.73,-0.8l-2.91 0zm8.74 0c-0.38,0 -0.69,0.3 -0.73,0.66 -0.04,0.44 0.3,0.8 0.73,0.8l2.91 0c0.38,0 0.69,-0.29 0.72,-0.66 0.05,-0.43 -0.3,-0.8 -0.72,-0.8l-2.91 0zm8.74 0c-0.38,0 -0.7,0.3 -0.73,0.66 -0.04,0.44 0.3,0.8 0.73,0.8l2.91 0c0.38,0 0.69,-0.29 0.72,-0.66 0.05,-0.43 -0.3,-0.8 -0.72,-0.8l-2.91 0zm8.73 0c-0.38,0 -0.69,0.3 -0.72,0.66 -0.04,0.44 0.3,0.8 0.72,0.8l2.92 0c0.38,0 0.69,-0.29 0.72,-0.66 0.04,-0.43 -0.3,-0.8 -0.72,-0.8l-2.92 0zm8.59 -0.29c-0.94,0.17 -0.69,1.6 0.27,1.43 0.98,-0.18 1.97,-0.44 2.92,-0.77 0.96,-0.39 0.34,-1.71 -0.49,-1.38 -0.89,0.31 -1.77,0.55 -2.7,0.72zm7.62 -3.35c-0.77,0.61 0.14,1.74 0.88,1.16 0.82,-0.61 1.56,-1.26 2.27,-1.99 0.67,-0.66 -0.35,-1.71 -1.04,-1.01 -0.65,0.66 -1.36,1.28 -2.11,1.84zm5.37 -6.38c-0.44,0.87 0.87,1.51 1.3,0.66 0.46,-0.91 0.83,-1.83 1.15,-2.79 0.29,-0.96 -1.12,-1.33 -1.38,-0.45 -0.3,0.89 -0.65,1.75 -1.07,2.58zm1.3 0.66l1.15 -2.79 -1.38 -0.45 0.23 3.24zm0.66 -8.74c0,0.37 0.29,0.69 0.66,0.72 0.43,0.04 0.79,-0.3 0.79,-0.72l0 -2.92c0,-0.38 -0.29,-0.69 -0.65,-0.72 -0.44,-0.04 -0.8,0.3 -0.8,0.72l0 2.92zm0 -8.74c0,0.38 0.29,0.69 0.66,0.72 0.43,0.05 0.79,-0.3 0.79,-0.72l0 -2.92c0,-0.37 -0.29,-0.69 -0.65,-0.72 -0.44,-0.04 -0.8,0.3 -0.8,0.72l0 2.92zm0 -8.74c0,0.38 0.29,0.69 0.66,0.72 0.43,0.05 0.79,-0.3 0.79,-0.72l0 -2.91c0,-0.38 -0.29,-0.69 -0.65,-0.73 -0.44,-0.04 -0.8,0.3 -0.8,0.73l0 2.91zm0 -8.74c0,0.38 0.29,0.69 0.66,0.73 0.43,0.04 0.79,-0.31 0.79,-0.73l0 -2.91c0,-0.38 -0.29,-0.69 -0.65,-0.73 -0.44,-0.04 -0.8,0.31 -0.8,0.73l0 2.91zm0 -8.74c0,0.38 0.29,0.69 0.66,0.73 0.43,0.04 0.79,-0.3 0.79,-0.73l0 -2.91c0,-0.38 -0.29,-0.69 -0.65,-0.73 -0.44,-0.04 -0.8,0.31 -0.8,0.73l0 2.91zm0 -8.74c0,0.38 0.29,0.7 0.66,0.73 0.43,0.04 0.79,-0.3 0.79,-0.73l0 -2.91c0,-0.38 -0.29,-0.69 -0.65,-0.72 -0.44,-0.05 -0.8,0.3 -0.8,0.72l0 2.91zm0 -8.73c0,0.37 0.29,0.69 0.66,0.72 0.43,0.04 0.79,-0.3 0.79,-0.72l0 -2.92c0,-0.38 -0.29,-0.69 -0.65,-0.72 -0.44,-0.04 -0.8,0.3 -0.8,0.72l0 2.92zm0 -8.74c0,0.38 0.29,0.69 0.66,0.72 0.43,0.05 0.79,-0.3 0.79,-0.72l0 -2.92c0,-0.37 -0.29,-0.69 -0.65,-0.72 -0.44,-0.04 -0.8,0.3 -0.8,0.72l0 2.92zm0 -8.74c0,0.38 0.29,0.69 0.66,0.72 0.43,0.05 0.79,-0.3 0.79,-0.72l0 -2.91c0,-0.38 -0.29,-0.69 -0.65,-0.73 -0.44,-0.04 -0.8,0.3 -0.8,0.73l0 2.91zm0 -8.74c0,0.38 0.29,0.69 0.66,0.73 0.43,0.04 0.79,-0.31 0.79,-0.73l0 -2.91c0,-0.38 -0.29,-0.69 -0.65,-0.73 -0.44,-0.04 -0.8,0.31 -0.8,0.73l0 2.91zm0 -8.74c0,0.38 0.29,0.69 0.66,0.73 0.43,0.04 0.79,-0.3 0.79,-0.73l0 -2.91c0,-0.38 -0.29,-0.69 -0.65,-0.72 -0.44,-0.05 -0.8,0.3 -0.8,0.72l0 2.91zm-0.33 -8.57c0.16,0.91 1.6,0.69 1.43,-0.29 -0.2,-1 -0.47,-1.95 -0.81,-2.91 -0.37,-0.94 -1.7,-0.34 -1.36,0.5 0.31,0.89 0.56,1.77 0.74,2.7zm1.43 -0.29l-0.81 -2.91 -1.36 0.5 2.17 2.41zm-4.85 -7.31c0.59,0.77 1.73,-0.13 1.15,-0.88 -0.61,-0.8 -1.29,-1.56 -2.01,-2.26 -0.65,-0.64 -1.72,0.35 -1.01,1.06 0.68,0.66 1.29,1.33 1.87,2.08zm-6.43 -5.29c0.84,0.42 1.51,-0.88 0.64,-1.31 -0.92,-0.45 -1.83,-0.82 -2.8,-1.13 -0.94,-0.28 -1.34,1.12 -0.44,1.39 0.9,0.29 1.75,0.63 2.6,1.05zm-8.12 -1.88c0.38,0 0.69,-0.3 0.73,-0.66 0.04,-0.43 -0.3,-0.8 -0.73,-0.8l-2.91 0c-0.38,0 -0.69,0.29 -0.73,0.66 -0.04,0.43 0.31,0.8 0.73,0.8l2.91 0zm-8.74 0c0.38,0 0.7,-0.3 0.73,-0.66 0.04,-0.43 -0.3,-0.8 -0.73,-0.8l-2.91 0c-0.38,0 -0.69,0.29 -0.72,0.66 -0.05,0.43 0.3,0.8 0.72,0.8l2.91 0zm-8.73 0c0.37,0 0.69,-0.3 0.72,-0.66 0.04,-0.43 -0.3,-0.8 -0.72,-0.8l-2.92 0c-0.38,0 -0.69,0.29 -0.72,0.66 -0.05,0.43 0.3,0.8 0.72,0.8l2.92 0zm-8.74 0c0.38,0 0.69,-0.3 0.72,-0.66 0.05,-0.43 -0.3,-0.8 -0.72,-0.8l-2.92 0c-0.37,0 -0.69,0.29 -0.72,0.66 -0.04,0.43 0.3,0.8 0.72,0.8l2.92 0zm-8.74 0c0.38,0 0.69,-0.3 0.72,-0.66 0.05,-0.43 -0.3,-0.8 -0.72,-0.8l-2.91 0c-0.38,0 -0.7,0.29 -0.73,0.66 -0.04,0.43 0.3,0.8 0.73,0.8l2.91 0zm-8.74 0c0.38,0 0.69,-0.3 0.73,-0.66 0.04,-0.43 -0.31,-0.8 -0.73,-0.8l-2.91 0c-0.38,0 -0.69,0.29 -0.73,0.66 -0.04,0.43 0.3,0.8 0.73,0.8l2.91 0zm-8.74 0c0.38,0 0.69,-0.3 0.73,-0.66 0.04,-0.43 -0.3,-0.8 -0.73,-0.8l-2.91 0c-0.38,0 -0.69,0.29 -0.73,0.66 -0.04,0.43 0.31,0.8 0.73,0.8l2.91 0zm-8.74 0c0.38,0 0.7,-0.3 0.73,-0.66 0.04,-0.43 -0.3,-0.8 -0.73,-0.8l-2.91 0c-0.38,0 -0.69,0.29 -0.72,0.66 -0.05,0.43 0.3,0.8 0.72,0.8l2.91 0zm-8.73 0c0.37,0 0.69,-0.3 0.72,-0.66 0.04,-0.43 -0.3,-0.8 -0.72,-0.8l-2.92 0c-0.38,0 -0.69,0.29 -0.72,0.66 -0.04,0.43 0.3,0.8 0.72,0.8l2.92 0zm-8.74 0c0.38,0 0.69,-0.3 0.72,-0.66 0.05,-0.43 -0.3,-0.8 -0.72,-0.8l-2.92 0c-0.37,0 -0.69,0.29 -0.72,0.66 -0.04,0.43 0.3,0.8 0.72,0.8l2.92 0zm-8.74 0c0.38,0 0.69,-0.3 0.72,-0.66 0.05,-0.43 -0.3,-0.8 -0.72,-0.8l-2.91 0c-0.38,0 -0.7,0.29 -0.73,0.66 -0.04,0.43 0.3,0.8 0.73,0.8l2.91 0zm-8.74 0c0.38,0 0.69,-0.3 0.73,-0.66 0.04,-0.43 -0.31,-0.8 -0.73,-0.8l-2.91 0c-0.38,0 -0.69,0.29 -0.73,0.66 -0.04,0.43 0.3,0.8 0.73,0.8l2.91 0zm-8.74 0c0.38,0 0.69,-0.3 0.73,-0.66 0.04,-0.43 -0.3,-0.8 -0.73,-0.8l-2.91 0c-0.38,0 -0.69,0.29 -0.73,0.66 -0.04,0.43 0.31,0.8 0.73,0.8l2.91 0zm-8.74 0c0.38,0 0.7,-0.3 0.73,-0.66 0.04,-0.43 -0.3,-0.8 -0.73,-0.8l-2.91 0c-0.38,0 -0.69,0.29 -0.72,0.66 -0.05,0.43 0.3,0.8 0.72,0.8l2.91 0zm-8.73 0c0.37,0 0.69,-0.3 0.72,-0.66 0.04,-0.43 -0.3,-0.8 -0.72,-0.8l-2.92 0c-0.38,0 -0.69,0.29 -0.72,0.66 -0.04,0.43 0.3,0.8 0.72,0.8l2.92 0zm-8.74 0c0.38,0 0.69,-0.3 0.72,-0.66 0.05,-0.43 -0.3,-0.8 -0.72,-0.8l-2.92 0c-0.37,0 -0.69,0.29 -0.72,0.66 -0.04,0.43 0.3,0.8 0.72,0.8l2.92 0zm-8.74 0c0.38,0 0.69,-0.3 0.72,-0.66 0.05,-0.43 -0.3,-0.8 -0.72,-0.8l-2.91 0c-0.38,0 -0.69,0.29 -0.73,0.66 -0.04,0.43 0.3,0.8 0.73,0.8l2.91 0zm-8.74 0c0.38,0 0.69,-0.3 0.73,-0.66 0.04,-0.43 -0.31,-0.8 -0.73,-0.8l-2.91 0c-0.38,0 -0.69,0.29 -0.73,0.66 -0.04,0.43 0.31,0.8 0.73,0.8l2.91 0zm-8.74 0c0.38,0 0.69,-0.3 0.73,-0.66 0.04,-0.43 -0.3,-0.8 -0.73,-0.8l-2.91 0c-0.38,0 -0.69,0.29 -0.73,0.66 -0.04,0.43 0.31,0.8 0.73,0.8l2.91 0z"/>
  <path class="fil2" d="M30.03 93.72l53.31 0c8.48,0 15.41,6.94 15.41,15.42l0 18.27c0,8.47 -6.94,15.41 -15.41,15.41l-53.31 0 0 -49.1z"/>
  <path class="fil3" d="M12.29 98.7l63.02 0c6.76,0 12.29,5.53 12.29,12.29l0 14.56c0,6.76 -5.53,12.29 -12.29,12.29l-63.02 0c-6.76,0 -12.29,-5.53 -12.29,-12.29l0 -14.56c0,-6.76 5.53,-12.29 12.29,-12.29z"/>
  <circle class="fil4" cx="59.32" cy="118.27" r="14.56"/>
  <g id="XMLID_100_">
   <path id="XMLID_99_" class="fil5" d="M140.38 85.1c20.56,0 37.23,-19.05 37.23,-42.55 0,-23.5 -16.67,-42.55 -37.23,-42.55 -20.56,0 -37.23,19.05 -37.23,42.55 0,23.5 16.67,42.55 37.23,42.55z"/>
   <path id="XMLID_132_" class="fil6" d="M177.61 42.55c0,-21.73 -14.26,-39.65 -32.67,-42.22 1.5,-0.21 3.02,-0.33 4.56,-0.33 20.56,0 37.23,19.05 37.23,42.55 0,23.5 -16.67,42.55 -37.23,42.55 -1.54,0 -3.06,-0.12 -4.56,-0.33 18.41,-2.57 32.67,-20.49 32.67,-42.22z"/>
   <g>
    <path id="XMLID_115_" class="fil6" d="M140.25 76.78l0.13 0c1.07,0 2.14,-0.06 3.19,-0.19 0.83,-0.1 1.43,-0.85 1.33,-1.69 -0.1,-0.83 -0.86,-1.42 -1.69,-1.33 -0.93,0.11 -1.88,0.17 -2.83,0.17 -0.84,0 -1.58,0.68 -1.58,1.52 0,0.84 0.61,1.52 1.45,1.52l0 0zm-8.83 -1.64c0.61,0 1.19,-0.37 1.42,-0.98 0.3,-0.79 -0.1,-1.66 -0.89,-1.96 -0.87,-0.33 -1.75,-0.72 -2.59,-1.15 -0.75,-0.39 -1.66,-0.09 -2.05,0.66 -0.38,0.74 -0.08,1.66 0.66,2.04 0.95,0.49 1.93,0.92 2.91,1.29 0.18,0.07 0.36,0.1 0.54,0.1l0 0zm20.57 -1.16c0.23,0 0.46,-0.05 0.68,-0.16 0.94,-0.48 1.86,-1.01 2.75,-1.6 0.7,-0.46 0.9,-1.4 0.44,-2.1 -0.46,-0.7 -1.4,-0.9 -2.1,-0.44 -0.8,0.52 -1.63,1 -2.46,1.43 -0.75,0.38 -1.05,1.29 -0.67,2.04 0.27,0.53 0.8,0.83 1.36,0.83l0 0zm-30.57 -5.41c0.39,0 0.78,-0.14 1.07,-0.44 0.6,-0.59 0.6,-1.55 0.01,-2.15 -0.66,-0.66 -1.3,-1.38 -1.91,-2.13 -0.53,-0.65 -1.48,-0.74 -2.13,-0.22 -0.65,0.53 -0.76,1.49 -0.22,2.14 0.66,0.83 1.37,1.62 2.11,2.35 0.29,0.3 0.69,0.45 1.07,0.45l0 0zm39.85 -2.14c0.44,0 0.87,-0.19 1.17,-0.55 0.66,-0.81 1.3,-1.66 1.88,-2.53 0.47,-0.7 0.29,-1.64 -0.41,-2.11 -0.69,-0.47 -1.64,-0.29 -2.11,0.41 -0.53,0.8 -1.11,1.57 -1.71,2.3 -0.53,0.65 -0.44,1.61 0.21,2.14 0.28,0.23 0.63,0.34 0.97,0.34l0 0zm-46.53 -7.8c0.21,0 0.41,-0.04 0.61,-0.13 0.77,-0.33 1.12,-1.23 0.79,-2 -0.38,-0.87 -0.73,-1.78 -1.04,-2.69 -0.26,-0.79 -1.13,-1.22 -1.92,-0.95 -0.8,0.27 -1.23,1.13 -0.96,1.92 0.34,0.99 0.72,1.98 1.13,2.93 0.25,0.58 0.81,0.92 1.39,0.92l0 0zm52.32 -2.69c0.63,0 1.22,-0.4 1.44,-1.03 0.33,-0.98 0.63,-2 0.89,-3.01 0.2,-0.82 -0.3,-1.64 -1.11,-1.84 -0.81,-0.21 -1.64,0.29 -1.84,1.11 -0.24,0.93 -0.51,1.86 -0.82,2.76 -0.27,0.8 0.16,1.66 0.95,1.93 0.16,0.06 0.33,0.08 0.49,0.08l0 0zm-55.19 -8.96c0.04,0 0.08,0 0.12,0 0.84,-0.07 1.46,-0.8 1.4,-1.64 -0.07,-0.92 -0.11,-1.86 -0.11,-2.79 0,-0.84 -0.68,-1.57 -1.52,-1.57 -0.84,0 -1.52,0.63 -1.52,1.47l0 0.1c0,1.01 0.04,2.03 0.12,3.03 0.06,0.8 0.73,1.4 1.51,1.4l0 0zm57.13 -2.89c0.84,0 1.52,-0.67 1.52,-1.51l0 -0.03c0,-1.04 -0.04,-2.08 -0.12,-3.1 -0.06,-0.83 -0.79,-1.45 -1.63,-1.39 -0.84,0.07 -1.47,0.8 -1.4,1.63 0.08,0.94 0.11,1.9 0.11,2.86 0,0.84 0.68,1.54 1.52,1.54l0 0zm-56.13 -9.06c0.68,0 1.3,-0.46 1.47,-1.15 0.24,-0.94 0.52,-1.87 0.83,-2.77 0.27,-0.79 -0.16,-1.66 -0.95,-1.93 -0.79,-0.27 -1.66,0.15 -1.93,0.95 -0.34,0.98 -0.64,1.99 -0.89,3 -0.21,0.82 0.29,1.64 1.1,1.85 0.12,0.03 0.25,0.05 0.37,0.05l0 0zm54.21 -2.77c0.16,0 0.33,-0.02 0.49,-0.08 0.79,-0.27 1.22,-1.13 0.95,-1.93 -0.34,-0.98 -0.72,-1.97 -1.13,-2.93 -0.34,-0.77 -1.24,-1.11 -2.01,-0.78 -0.77,0.34 -1.12,1.23 -0.78,2 0.38,0.88 0.73,1.78 1.04,2.69 0.22,0.63 0.81,1.03 1.44,1.03l0 0zm-49.34 -8.19c0.48,0 0.96,-0.24 1.26,-0.67 0.53,-0.79 1.11,-1.57 1.71,-2.3 0.54,-0.65 0.44,-1.6 -0.2,-2.14 -0.65,-0.53 -1.61,-0.44 -2.14,0.21 -0.66,0.8 -1.3,1.65 -1.89,2.53 -0.47,0.69 -0.29,1.64 0.41,2.11 0.26,0.17 0.55,0.26 0.85,0.26l0 0zm43.57 -2.31c0.34,0 0.68,-0.12 0.96,-0.35 0.65,-0.53 0.75,-1.48 0.22,-2.13 -0.67,-0.83 -1.39,-1.62 -2.12,-2.35 -0.59,-0.6 -1.55,-0.6 -2.15,-0.01 -0.59,0.59 -0.6,1.55 0,2.15 0.66,0.67 1.3,1.38 1.91,2.13 0.3,0.37 0.74,0.56 1.18,0.56l0 0zm-35.08 -6.13c0.29,0 0.58,-0.08 0.83,-0.24 0.8,-0.52 1.63,-1 2.47,-1.42 0.74,-0.38 1.04,-1.29 0.67,-2.04 -0.38,-0.75 -1.29,-1.06 -2.04,-0.68 -0.94,0.48 -1.87,1.01 -2.76,1.59 -0.7,0.46 -0.9,1.4 -0.44,2.1 0.29,0.45 0.78,0.69 1.27,0.69l0 0zm25.81 -1.44c0.55,0 1.09,-0.3 1.36,-0.83 0.38,-0.75 0.08,-1.66 -0.67,-2.04 -0.95,-0.49 -1.92,-0.92 -2.91,-1.29 -0.78,-0.29 -1.66,0.11 -1.96,0.89 -0.29,0.79 0.11,1.66 0.9,1.96 0.87,0.33 1.75,0.71 2.59,1.14 0.22,0.12 0.46,0.17 0.69,0.17l0 0zm-14.6 -2.66c0.06,0 0.12,0 0.18,-0.01 0.91,-0.11 1.84,-0.16 2.76,-0.16 0.84,0 1.56,-0.68 1.56,-1.52 0,-0.84 -0.65,-1.52 -1.49,-1.52l-0.07 0c-1.03,0 -2.08,0.06 -3.11,0.18 -0.83,0.1 -1.43,0.85 -1.34,1.69 0.09,0.77 0.75,1.34 1.51,1.34z"/>
   </g>
   <path id="XMLID_114_" class="fil7" d="M177.62 44.07l9.11 0c-0.03,1.02 -0.09,2.04 -0.18,3.04l-9.12 0c0.09,-1 0.16,-2.02 0.19,-3.04z"/>
   <path id="XMLID_113_" class="fil7" d="M177.27 36.47l9.11 0c0.13,1 0.22,2.02 0.28,3.04l-9.12 0c-0.06,-1.02 -0.14,-2.04 -0.27,-3.04z"/>
   <path id="XMLID_112_" class="fil7" d="M176.78 51.67l9.12 0c-0.2,1.03 -0.42,2.04 -0.68,3.04l-9.12 0c0.26,-1 0.48,-2.01 0.68,-3.04z"/>
   <path id="XMLID_111_" class="fil7" d="M174.66 59.27l9.12 0c-0.39,1.03 -0.82,2.04 -1.27,3.04l-9.12 0c0.45,-0.99 0.88,-2.01 1.27,-3.04z"/>
   <path id="XMLID_110_" class="fil7" d="M175.68 28.87l9.11 0c0.29,1 0.57,2.01 0.8,3.04l-9.13 0c-0.23,-1.02 -0.48,-2.04 -0.78,-3.04z"/>
   <path id="XMLID_109_" class="fil7" d="M172.65 21.28l9.12 0c0.5,0.98 0.98,2 1.41,3.03l-9.13 0c-0.43,-1.03 -0.89,-2.05 -1.4,-3.03z"/>
   <path id="XMLID_108_" class="fil7" d="M166.45 12.16l9.13 0c0.87,0.96 1.69,1.98 2.47,3.04l-9.13 0c-0.78,-1.06 -1.6,-2.08 -2.47,-3.04z"/>
   <path id="XMLID_107_" class="fil7" d="M157.16 4.56l9.14 0c1.55,0.9 3.04,1.91 4.46,3.04l-9.13 0c-1.42,-1.13 -2.92,-2.14 -4.47,-3.04z"/>
   <path id="XMLID_106_" class="fil7" d="M169.99 68.38l9.12 0c-0.71,1.06 -1.45,2.07 -2.24,3.04l-9.13 0c0.79,-0.97 1.54,-1.98 2.25,-3.04z"/>
   <path id="XMLID_105_" class="fil7" d="M172.55 75.98c-1.22,1.1 -2.5,2.12 -3.84,3.04l-9.13 0c1.34,-0.92 2.63,-1.93 3.86,-3.04l9.11 0z"/>
  </g>
  <path class="fil8" d="M135.63 42.62c1.86,-1.07 3.75,-3.05 3.75,-7.66 0,-5.47 -2.61,-7.25 -7.08,-6.05 -1.5,0.4 -3.01,0.76 -4.51,1.08 -1.5,0.31 -3,0.57 -4.5,0.82 0,3.4 0,6.81 0,10.21 0,3.4 0,6.81 0,10.21 1.55,0.07 3.1,0.17 4.65,0.29 0,-1.3 0,-2.6 0,-3.89 0,-1.3 0,-2.61 0,-3.91 1.01,-0.02 2.02,-0.04 3.03,-0.05 0.65,1.37 1.31,2.78 1.95,4.21 0.66,1.46 1.31,2.96 1.96,4.49 1.8,0.25 3.62,0.47 5.43,0.67 -0.79,-1.83 -1.56,-3.63 -2.35,-5.38 -0.77,-1.72 -1.55,-3.4 -2.33,-5.04zm-1 -6.66c0,2.37 -1.07,3.88 -3.6,4.09 -1.03,0.08 -2.06,0.14 -3.09,0.21 0,-2.23 0,-4.47 0,-6.72 1.18,-0.2 2.36,-0.4 3.54,-0.63 2.23,-0.43 3.15,0.75 3.15,3.05zm23.64 5.75c0,-4.24 -0.46,-7.4 -1.64,-9.34 -1.14,-1.88 -3.01,-2.52 -5.75,-1.89 -3.57,0.82 -5.74,1.97 -7.57,3.03 0,4.72 0,9.44 0,14.15 0,4.71 0,9.43 0,14.15 1.46,0.22 2.92,0.44 4.39,0.64 0,-3.07 0,-6.16 0,-9.24 0.84,0.4 2.22,0.84 3.63,0.94 2.28,0.17 4.02,-0.64 5.18,-2.65 1.17,-2.03 1.76,-5.31 1.76,-9.79zm-4.51 0.11c0,3.94 -0.24,7.66 -3.18,7.63 -1.2,-0.02 -2.41,-0.28 -2.88,-0.58 0,-2.1 0,-4.21 0,-6.32 0,-2.1 0,-4.22 0,-6.32 0.39,-0.29 1.53,-0.79 2.88,-1.02 2.88,-0.49 3.18,3.04 3.18,6.61z"/>
 </g>
</svg>
