<?xml version="1.0" encoding="UTF-8"?>
<!DOCTYPE svg PUBLIC "-//W3C//DTD SVG 1.1//EN" "http://www.w3.org/Graphics/SVG/1.1/DTD/svg11.dtd">
<!-- Creator: CorelDRAW 2019 (64-Bit) -->
<svg xmlns="http://www.w3.org/2000/svg" xml:space="preserve" width="1224px" height="631px" version="1.1" style="shape-rendering:geometricPrecision; text-rendering:geometricPrecision; image-rendering:optimizeQuality; fill-rule:evenodd; clip-rule:evenodd"
viewBox="0 0 13171.6 6791.95"
 xmlns:xlink="http://www.w3.org/1999/xlink"
 xmlns:xodm="http://www.corel.com/coreldraw/odm/2003">
 <defs>
  <style type="text/css">
   <![CDATA[
    .fil1 {fill:#02B3E4}
    .fil3 {fill:#04ADDB}
    .fil4 {fill:#08A6D0}
    .fil11 {fill:#9013FE}
    .fil5 {fill:#AAC495}
    .fil8 {fill:#DCA815}
    .fil12 {fill:#E7E7E7}
    .fil7 {fill:#F4BF1A}
    .fil10 {fill:#F6CE22}
    .fil6 {fill:#FFD949}
    .fil13 {fill:#0BC034;fill-rule:nonzero}
    .fil15 {fill:#5676FC;fill-rule:nonzero}
    .fil14 {fill:#AE61E3;fill-rule:nonzero}
    .fil9 {fill:#DCA815;fill-rule:nonzero}
    .fil16 {fill:#ED2894;fill-rule:nonzero}
    .fil0 {fill:#F3F6FB;fill-rule:nonzero}
    .fil2 {fill:white;fill-rule:nonzero}
   ]]>
  </style>
 </defs>
 <g id="Layer_x0020_1">
  <metadata id="CorelCorpID_0Corel-Layer"/>
  <g id="_2155335555136">
   <path class="fil0" d="M1906.93 3820.64c-165.14,24.16 -318.59,-90.14 -342.75,-255.27 -24.14,-165.15 90.15,-318.61 255.29,-342.75l8592.72 -1270.76c165.14,-24.14 318.6,90.15 342.75,255.28 24.14,165.15 -90.15,318.61 -255.29,342.75l-8592.72 1270.75z"/>
   <path class="fil0" d="M2152.38 5237.59c-165.14,24.15 -318.6,-90.14 -342.75,-255.27 -24.14,-165.15 90.14,-318.61 255.29,-342.75l8592.72 -1270.75c165.14,-24.16 318.59,90.14 342.75,255.27 24.14,165.15 -90.15,318.61 -255.29,342.75l-8592.72 1270.75z"/>
   <path class="fil0" d="M5100.7 6200.71c-165.15,24.14 -318.59,-90.14 -342.75,-255.29 -24.15,-165.14 90.14,-318.59 255.29,-342.75l3831.46 -531.42c165.15,-24.14 318.59,90.15 342.75,255.29 24.14,165.13 -90.14,318.6 -255.29,342.74l-3831.46 531.43z"/>
   <rect class="fil1" x="3729.61" y="2390.57" width="5098.65" height="3402.47" rx="494.72" ry="494.72"/>
   <path class="fil2" d="M8153.86 2630.28c4.46,0 8.52,1.83 11.45,4.77 3.03,3.03 2.9,7.85 2.74,10.91 -0.15,3.06 0.01,9.1 -3.4,12.51 -2.87,2.57 -6.66,4.13 -10.79,4.13l-64.63 0c-8.4,0 -15.33,-6.46 -16.08,-14.6 -0.95,-9.59 6.7,-17.72 16.08,-17.72l64.63 0zm198.75 84.94c-17.31,-9.62 -4.39,-38.25 16.15,-27.99 19.66,11.23 37.65,23.55 55.48,37.5 16.48,12.8 -2.96,38.63 -20.11,25.3 -16.37,-12.93 -33.4,-24.47 -51.52,-34.81zm135.8 125.54c-11.97,-17.96 15.14,-35.55 26.78,-18.11 12.56,18.47 23.73,38.03 33.32,58.22 9.06,18.14 -19.29,33.67 -29.26,13.72 -9.21,-18.92 -18.99,-36.42 -30.84,-53.83zm66.02 172.45c-2.06,-22.73 30.26,-23.84 32.06,-4.13 2.96,22.71 3.82,43.65 3.82,66.52 0,8.4 -6.46,15.35 -14.61,16.1 -9.58,0.95 -17.71,-6.7 -17.71,-16.1 0,-21.52 -0.77,-41 -3.56,-62.39zm3.56 191.64c0,-8.4 6.46,-15.34 14.63,-16.08 9.58,-0.95 17.69,6.7 17.69,16.08l0 64.63c0,8.4 -6.46,15.33 -14.61,16.08 -9.58,0.96 -17.71,-6.7 -17.71,-16.08l0 -64.63zm0 193.87c0,-8.4 6.46,-15.35 14.63,-16.08 9.58,-0.96 17.69,6.7 17.69,16.08l0 64.63c0,8.4 -6.46,15.33 -14.61,16.08 -9.58,0.95 -17.71,-6.7 -17.71,-16.08l0 -64.63zm0 193.87c0,-8.41 6.46,-15.34 14.63,-16.09 9.58,-0.95 17.69,6.7 17.69,16.09l0 64.62c0,8.41 -6.46,15.34 -14.61,16.09 -9.58,0.95 -17.71,-6.7 -17.71,-16.09l0 -64.62zm0 193.86c0,-8.4 6.46,-15.33 14.63,-16.08 9.58,-0.95 17.69,6.7 17.69,16.08l0 64.63c0,8.4 -6.46,15.35 -14.61,16.08 -9.58,0.96 -17.71,-6.7 -17.71,-16.08l0 -64.63zm0 193.87c0,-8.4 6.46,-15.33 14.63,-16.08 9.58,-0.96 17.69,6.7 17.69,16.08l0 64.63c0,8.4 -6.46,15.34 -14.61,16.08 -9.58,0.95 -17.71,-6.7 -17.71,-16.08l0 -64.63zm0 193.88c0,-8.4 6.46,-15.35 14.63,-16.08 9.58,-0.97 17.69,6.68 17.69,16.08l0 64.61c0,8.41 -6.46,15.35 -14.61,16.09 -9.58,0.95 -17.71,-6.69 -17.71,-16.09l0 -64.61zm0 193.87c0,-8.41 6.46,-15.35 14.63,-16.09 9.58,-0.95 17.69,6.69 17.69,16.09l0 64.61c0,8.4 -6.46,15.35 -14.61,16.08 -9.58,0.97 -17.71,-6.68 -17.71,-16.08l0 -64.61zm0 193.86c0,-8.4 6.46,-15.34 14.63,-16.08 9.58,-0.95 17.69,6.7 17.69,16.08l0 64.63c0,8.4 -6.46,15.33 -14.61,16.08 -9.58,0.96 -17.71,-6.7 -17.71,-16.08l0 -64.63zm0 193.87c0,-8.4 6.46,-15.35 14.63,-16.08 9.58,-0.96 17.69,6.7 17.69,16.08l0 64.63c0,8.4 -6.46,15.33 -14.61,16.08 -9.58,0.95 -17.71,-6.7 -17.71,-16.08l0 -64.63zm0 193.87c0,-8.41 6.46,-15.34 14.63,-16.09 9.58,-0.95 17.69,6.7 17.69,16.09l0 64.62c0,8.41 -6.46,15.34 -14.61,16.09 -9.58,0.95 -17.71,-6.7 -17.71,-16.09l0 -64.62zm-0.81 192.81c2.03,-22.26 34.09,-18.09 32.26,2.08 -0.83,21.25 -4.84,45.63 -9.41,66.44 -3.51,19.3 -35.64,15.49 -31.52,-7.1 4.26,-19.01 7.93,-41.99 8.67,-61.42zm-53.82 176.66c12.35,-18.5 37.94,-1.76 27.9,16.32 -11.33,19.32 -23.98,37.82 -38.11,55.2 -14.23,16.26 -38.05,-3.7 -25.02,-20.44 12.98,-15.71 24.94,-33.51 35.23,-51.08zm-126.81 134.52c17.6,-11.72 35.68,15.07 17.82,26.95 -18.9,12.51 -37.97,23.11 -58.49,32.73 -17.92,8.95 -33.71,-19.25 -13.53,-29.34 18.98,-8.85 36.74,-18.78 54.2,-30.34zm-173.16 64.32c22.44,-2.03 23.89,30.26 3.92,32.08 -22.7,2.81 -43.64,3.28 -66.46,3.28 -8.4,0 -15.34,-6.46 -16.08,-14.61 -0.95,-9.6 6.69,-17.71 16.08,-17.71 21.53,0 41.15,-0.39 62.54,-3.04zm-191.79 3.04c8.4,0 15.35,6.46 16.08,14.61 0.96,9.6 -6.68,17.71 -16.08,17.71l-64.61 0c-8.41,0 -15.35,-6.46 -16.09,-14.61 -0.95,-9.6 6.69,-17.71 16.09,-17.71l64.61 0zm-193.87 0c8.41,0 15.35,6.46 16.09,14.61 0.95,9.6 -6.7,17.71 -16.09,17.71l-64.62 0c-8.41,0 -15.34,-6.46 -16.09,-14.61 -0.95,-9.6 6.7,-17.71 16.09,-17.71l64.62 0zm-193.86 0c8.4,0 15.34,6.46 16.08,14.61 0.95,9.6 -6.7,17.71 -16.08,17.71l-64.63 0c-8.4,0 -15.33,-6.46 -16.08,-14.61 -0.96,-9.6 6.7,-17.71 16.08,-17.71l64.63 0zm-193.87 0c8.4,0 15.33,6.46 16.08,14.61 0.96,9.6 -6.7,17.71 -16.08,17.71l-64.63 0c-8.4,0 -15.33,-6.46 -16.08,-14.61 -0.95,-9.6 6.7,-17.71 16.08,-17.71l64.63 0zm-193.87 0c8.41,0 15.34,6.46 16.09,14.61 0.95,9.6 -6.7,17.71 -16.09,17.71l-64.62 0c-8.41,0 -15.34,-6.46 -16.09,-14.61 -0.95,-9.6 6.7,-17.71 16.09,-17.71l64.62 0zm-193.86 0c8.4,0 15.33,6.46 16.08,14.61 0.95,9.6 -6.7,17.71 -16.08,17.71l-64.63 0c-8.4,0 -15.35,-6.46 -16.08,-14.61 -0.96,-9.6 6.7,-17.71 16.08,-17.71l64.63 0zm-193.88 0c8.41,0 15.34,6.46 16.09,14.61 0.96,9.6 -6.7,17.71 -16.09,17.71l-64.62 0c-8.4,0 -15.34,-6.46 -16.08,-14.61 -0.95,-9.6 6.69,-17.71 16.08,-17.71l64.62 0zm-193.87 0c8.4,0 15.35,6.46 16.08,14.61 0.96,9.6 -6.68,17.71 -16.08,17.71l-64.61 0c-8.41,0 -15.35,-6.46 -16.09,-14.61 -0.95,-9.6 6.69,-17.71 16.09,-17.71l64.61 0zm-193.87 0c8.41,0 15.35,6.46 16.09,14.61 0.95,9.6 -6.69,17.71 -16.09,17.71l-64.62 0c-8.41,0 -15.34,-6.46 -16.09,-14.61 -0.95,-9.6 6.7,-17.71 16.09,-17.71l64.62 0zm-193.86 0c8.4,0 15.34,6.46 16.08,14.61 0.95,9.6 -6.7,17.71 -16.08,17.71l-64.63 0c-8.4,0 -15.33,-6.46 -16.08,-14.61 -0.96,-9.6 6.7,-17.71 16.08,-17.71l64.63 0zm-193.87 0c8.4,0 15.33,6.46 16.08,14.61 0.96,9.6 -6.7,17.71 -16.08,17.71l-64.63 0c-8.4,0 -15.33,-6.46 -16.08,-14.61 -0.95,-9.6 6.7,-17.71 16.08,-17.71l64.63 0zm-193.87 0c8.41,0 15.34,6.46 16.09,14.61 0.95,9.6 -6.7,17.71 -16.09,17.71l-64.62 0c-8.41,0 -15.34,-6.46 -16.09,-14.61 -0.95,-9.6 6.7,-17.71 16.09,-17.71l64.62 0zm-193.86 0c8.4,0 15.33,6.46 16.08,14.61 0.95,9.6 -6.7,17.71 -16.08,17.71l-64.63 0c-8.4,0 -15.35,-6.46 -16.08,-14.61 -0.96,-9.6 6.7,-17.71 16.08,-17.71l64.63 0zm-193.87 0c8.4,0 15.33,6.46 16.08,14.61 0.96,9.6 -6.7,17.71 -16.08,17.71l-64.63 0c-8.4,0 -15.34,-6.46 -16.08,-14.61 -0.95,-9.6 6.69,-17.71 16.08,-17.71l64.63 0zm-193.88 0c8.4,0 15.35,6.46 16.08,14.61 0.96,9.6 -6.68,17.71 -16.08,17.71l-64.61 0c-8.41,0 -15.35,-6.46 -16.09,-14.61 -0.95,-9.6 6.69,-17.71 16.09,-17.71l64.61 0zm-193.87 0c8.41,0 15.35,6.46 16.09,14.61 0.95,9.6 -6.69,17.71 -16.09,17.71l-64.61 0c-8.42,0 -15.35,-6.46 -16.1,-14.61 -0.95,-9.6 6.7,-17.71 16.1,-17.71l64.61 0zm-193.86 0c8.4,0 15.34,6.46 16.08,14.61 0.95,9.6 -6.7,17.71 -16.08,17.71l-64.63 0c-8.4,0 -15.33,-6.46 -16.08,-14.61 -0.96,-9.6 6.7,-17.71 16.08,-17.71l64.63 0zm-193.87 0c8.4,0 15.33,6.46 16.08,14.61 0.96,9.6 -6.7,17.71 -16.08,17.71l-64.63 0c-8.4,0 -15.33,-6.46 -16.08,-14.61 -0.95,-9.6 6.7,-17.71 16.08,-17.71l64.63 0zm-193.87 0c8.41,0 15.34,6.46 16.09,14.61 0.95,9.6 -6.7,17.71 -16.09,17.71l-64.62 0c-8.41,0 -15.34,-6.46 -16.09,-14.61 -0.95,-9.6 6.7,-17.71 16.09,-17.71l64.62 0zm-190.5 -6.56c20.75,3.76 15.25,35.61 -5.92,31.76 -21.87,-4.01 -43.85,-9.75 -64.8,-17.18 -21.33,-8.53 -7.49,-37.76 10.74,-30.47 19.82,6.81 39.36,12.11 59.98,15.89zm-169.13 -74.2c17.17,13.36 -3.09,38.52 -19.54,25.73 -18.02,-13.56 -34.5,-28.1 -50.33,-44.14 -14.71,-14.71 7.72,-37.99 23.12,-22.58 14.39,14.82 30.26,28.57 46.75,40.99zm-119.01 -141.59c9.65,19.32 -19.44,33.36 -28.81,14.64 -10.27,-20.13 -18.56,-40.6 -25.69,-62.02 -6.34,-21.11 24.84,-29.54 30.76,-9.89 6.55,19.74 14.27,38.74 23.74,57.27zm-28.81 14.64l-25.69 -62.02 30.78 -9.87 -5.09 71.89zm-14.67 -194.05c0,8.41 -6.46,15.35 -14.62,16.09 -9.59,0.96 -17.7,-6.69 -17.7,-16.09l0 -64.61c0,-8.41 6.46,-15.35 14.61,-16.09 9.59,-0.95 17.71,6.69 17.71,16.09l0 64.61zm0 -193.86c0,8.4 -6.46,15.34 -14.62,16.08 -9.59,0.95 -17.7,-6.69 -17.7,-16.08l0 -64.62c0,-8.4 6.46,-15.34 14.61,-16.08 9.59,-0.97 17.71,6.69 17.71,16.08l0 64.62zm0 -193.87c0,8.4 -6.46,15.34 -14.62,16.08 -9.59,0.96 -17.7,-6.7 -17.7,-16.08l0 -64.63c0,-8.4 6.46,-15.33 14.61,-16.08 9.59,-0.95 17.71,6.7 17.71,16.08l0 64.63zm0 -193.87c0,8.41 -6.46,15.35 -14.62,16.09 -9.59,0.95 -17.7,-6.71 -17.7,-16.09l0 -64.62c0,-8.41 6.46,-15.34 14.61,-16.09 9.59,-0.95 17.71,6.7 17.71,16.09l0 64.62zm0 -193.86c0,8.4 -6.46,15.33 -14.62,16.08 -9.59,0.95 -17.7,-6.7 -17.7,-16.08l0 -64.63c0,-8.41 6.46,-15.33 14.61,-16.08 9.59,-0.96 17.71,6.7 17.71,16.08l0 64.63zm0 -193.87c0,8.4 -6.46,15.33 -14.62,16.08 -9.59,0.96 -17.7,-6.7 -17.7,-16.08l0 -64.63c0,-8.4 6.46,-15.33 14.61,-16.08 9.59,-0.96 17.71,6.7 17.71,16.08l0 64.63zm0 -193.87c0,8.41 -6.46,15.33 -14.62,16.09 -9.59,0.95 -17.7,-6.71 -17.7,-16.09l0 -64.62c0,-8.41 6.46,-15.35 14.61,-16.09 9.59,-0.95 17.71,6.7 17.71,16.09l0 64.62zm0 -193.88c0,8.42 -6.46,15.35 -14.62,16.1 -9.59,0.95 -17.7,-6.7 -17.7,-16.1l0 -64.61c0,-8.41 6.46,-15.35 14.61,-16.09 9.59,-0.95 17.71,6.69 17.71,16.09l0 64.61zm0 -193.86c0,8.4 -6.46,15.34 -14.62,16.08 -9.59,0.95 -17.7,-6.69 -17.7,-16.08l0 -64.62c0,-8.4 6.46,-15.34 14.61,-16.08 9.59,-0.96 17.71,6.69 17.71,16.08l0 64.62zm0 -193.87c0,8.4 -6.46,15.34 -14.62,16.08 -9.59,0.96 -17.7,-6.69 -17.7,-16.08l0 -64.63c0,-8.4 6.46,-15.33 14.61,-16.08 9.59,-0.95 17.71,6.7 17.71,16.08l0 64.63zm0 -193.87c0,8.41 -6.46,15.35 -14.62,16.09 -9.59,0.95 -17.7,-6.71 -17.7,-16.09l0 -64.62c0,-8.41 6.46,-15.34 14.61,-16.09 9.59,-0.95 17.71,6.7 17.71,16.09l0 64.62zm7.3 -190.22c-3.7,20.28 -35.63,15.31 -31.7,-6.31 4.31,-22.28 10.27,-43.28 17.83,-64.66 8.34,-20.84 37.81,-7.57 30.33,11.13 -7,19.72 -12.48,39.29 -16.46,59.84zm-31.7 -6.31l17.83 -64.66 30.33 11.14 -48.16 53.52zm107.61 -162.19c-13.24,17.03 -38.56,-3.06 -25.64,-19.67 13.6,-17.68 28.57,-34.58 44.72,-49.99 14.36,-14.37 38.04,7.64 22.28,23.4 -15.05,14.6 -28.57,29.63 -41.36,46.26zm142.62 -117.53c-18.75,9.38 -33.55,-19.34 -14.21,-29.01 20.3,-9.93 40.6,-18.22 62.16,-25.02 20.86,-6.27 29.57,24.87 9.67,30.83 -20.04,6.37 -38.74,13.97 -57.62,23.2zm180.07 -41.73c-8.4,0 -15.34,-6.46 -16.08,-14.6 -0.96,-9.59 6.69,-17.72 16.08,-17.72l64.62 0c8.4,0 15.34,6.46 16.08,14.63 0.95,9.58 -6.69,17.69 -16.08,17.69l-64.62 0zm193.87 0c-8.41,0 -15.35,-6.46 -16.09,-14.6 -0.95,-9.59 6.69,-17.72 16.09,-17.72l64.61 0c8.41,0 15.35,6.46 16.1,14.63 0.95,9.58 -6.7,17.69 -16.1,17.69l-64.61 0zm193.87 0c-8.41,0 -15.35,-6.46 -16.09,-14.6 -0.95,-9.59 6.7,-17.72 16.09,-17.72l64.62 0c8.41,0 15.33,6.46 16.09,14.63 0.95,9.58 -6.71,17.69 -16.09,17.69l-64.62 0zm193.86 0c-8.4,0 -15.34,-6.46 -16.08,-14.6 -0.96,-9.59 6.7,-17.72 16.08,-17.72l64.63 0c8.4,0 15.33,6.46 16.08,14.63 0.96,9.58 -6.7,17.69 -16.08,17.69l-64.63 0zm193.87 0c-8.41,0 -15.33,-6.46 -16.08,-14.6 -0.96,-9.59 6.7,-17.72 16.08,-17.72l64.63 0c8.4,0 15.33,6.46 16.08,14.63 0.95,9.58 -6.7,17.69 -16.08,17.69l-64.63 0zm193.87 0c-8.41,0 -15.34,-6.46 -16.09,-14.6 -0.95,-9.59 6.7,-17.72 16.09,-17.72l64.62 0c8.41,0 15.35,6.46 16.09,14.63 0.95,9.58 -6.71,17.69 -16.09,17.69l-64.62 0zm193.86 0c-8.4,0 -15.33,-6.46 -16.08,-14.6 -0.96,-9.59 6.7,-17.72 16.08,-17.72l64.63 0c8.4,0 15.34,6.46 16.08,14.63 0.96,9.58 -6.7,17.69 -16.08,17.69l-64.63 0zm193.88 0c-8.4,0 -15.34,-6.46 -16.08,-14.6 -0.97,-9.59 6.69,-17.72 16.08,-17.72l64.62 0c8.4,0 15.34,6.46 16.08,14.63 0.95,9.58 -6.69,17.69 -16.08,17.69l-64.62 0zm193.87 0c-8.41,0 -15.35,-6.46 -16.09,-14.6 -0.95,-9.59 6.69,-17.72 16.09,-17.72l64.61 0c8.41,0 15.35,6.46 16.09,14.63 0.95,9.58 -6.69,17.69 -16.09,17.69l-64.61 0zm193.87 0c-8.41,0 -15.35,-6.46 -16.09,-14.6 -0.95,-9.59 6.7,-17.72 16.09,-17.72l64.62 0c8.41,0 15.33,6.46 16.09,14.63 0.95,9.58 -6.71,17.69 -16.09,17.69l-64.62 0zm193.86 0c-8.4,0 -15.34,-6.46 -16.08,-14.6 -0.96,-9.59 6.7,-17.72 16.08,-17.72l64.63 0c8.4,0 15.33,6.46 16.08,14.63 0.96,9.58 -6.7,17.69 -16.08,17.69l-64.63 0zm193.87 0c-8.41,0 -15.33,-6.46 -16.08,-14.6 -0.96,-9.59 6.7,-17.72 16.08,-17.72l64.63 0c8.4,0 15.33,6.46 16.08,14.63 0.95,9.58 -6.7,17.69 -16.08,17.69l-64.63 0zm193.87 0c-8.41,0 -15.34,-6.46 -16.09,-14.6 -0.95,-9.59 6.7,-17.72 16.09,-17.72l64.62 0c8.41,0 15.34,6.46 16.09,14.63 0.95,9.58 -6.71,17.69 -16.09,17.69l-64.62 0zm193.86 0c-8.4,0 -15.33,-6.46 -16.08,-14.6 -0.96,-9.59 6.7,-17.72 16.08,-17.72l64.63 0c8.4,0 15.34,6.46 16.08,14.63 0.96,9.58 -6.7,17.69 -16.08,17.69l-64.63 0zm193.88 0c-8.42,0 -15.34,-6.46 -16.09,-14.6 -0.96,-9.59 6.7,-17.72 16.09,-17.72l64.62 0c8.4,0 15.34,6.46 16.08,14.63 0.95,9.58 -6.69,17.69 -16.08,17.69l-64.62 0zm193.87 0c-8.41,0 -15.35,-6.46 -16.09,-14.6 -0.95,-9.59 6.69,-17.72 16.09,-17.72l64.61 0c8.41,0 15.35,6.46 16.09,14.63 0.95,9.58 -6.69,17.69 -16.09,17.69l-64.61 0zm193.86 0c-8.4,0 -15.34,-6.46 -16.08,-14.6 -0.95,-9.59 6.69,-17.72 16.08,-17.72l64.63 0c8.41,0 15.33,6.46 16.09,14.63 0.95,9.58 -6.71,17.69 -16.09,17.69l-64.63 0zm193.87 0c-8.4,0 -15.34,-6.46 -16.08,-14.6 -0.96,-9.59 6.7,-17.72 16.08,-17.72l64.63 0c8.4,0 15.33,6.46 16.08,14.63 0.96,9.58 -6.7,17.69 -16.08,17.69l-64.63 0zm193.87 0c-8.41,0 -15.33,-6.46 -16.09,-14.6 -0.95,-9.59 6.71,-17.72 16.09,-17.72l64.62 0c8.41,0 15.34,6.46 16.09,14.63 0.95,9.58 -6.7,17.69 -16.09,17.69l-64.62 0z"/>
   <path class="fil3" d="M8828.25 3532.02l-1182.54 0c-188.11,0 -342,153.89 -342,341.98l0 405.32c0,188.1 153.89,342 342,342l1182.54 0 0 -1089.3z"/>
   <path class="fil4" d="M9222.01 3642.52l-1398.34 0c-149.94,0 -272.61,122.68 -272.61,272.6l0 323.08c0,149.93 122.68,272.61 272.61,272.61l1398.34 0c149.92,0 272.6,-122.67 272.6,-272.61l0 -323.08c0,-149.94 -122.66,-272.6 -272.6,-272.6z"/>
   <circle class="fil5" cx="8178.48" cy="4076.66" r="323.09"/>
   <g id="XMLID_100_">
    <path id="XMLID_99_" class="fil6" d="M6278.9 3204.52c466.3,0 844.3,-432 844.3,-964.91 0,-532.9 -378,-964.89 -844.3,-964.89 -466.28,0 -844.29,431.99 -844.29,964.89 0,532.91 378.01,964.91 844.29,964.91z"/>
    <path id="XMLID_132_" class="fil7" d="M7123.2 2239.61c0,-492.85 -323.42,-899.15 -740.91,-957.46 33.91,-4.71 68.37,-7.43 103.38,-7.43 466.3,0 844.29,431.99 844.29,964.89 0,532.91 -377.99,964.91 -844.29,964.91 -35.01,0 -69.47,-2.72 -103.38,-7.45 417.49,-58.31 740.91,-464.59 740.91,-957.46z"/>
    <g>
     <path id="XMLID_115_" class="fil7" d="M6275.98 3015.82l2.96 0c24.12,0 48.42,-1.45 72.19,-4.29 18.93,-2.26 32.4,-19.4 30.16,-38.32 -2.28,-18.92 -19.54,-32.11 -38.32,-30.1 -21.09,2.5 -42.63,3.78 -64.03,3.78 -19.06,0 -35.94,15.44 -35.94,34.46 0,19.02 13.88,34.47 32.98,34.47l0 0zm-200.39 -37.13c13.92,0 27.06,-8.5 32.26,-22.32 6.72,-17.82 -2.28,-37.7 -20.09,-44.39 -19.85,-7.48 -39.67,-16.26 -58.79,-26.09 -16.96,-8.75 -37.7,-2.03 -46.42,14.93 -8.69,16.92 -2,37.7 14.95,46.38 21.47,11.02 43.63,20.81 65.96,29.25 3.97,1.52 8.06,2.24 12.13,2.24l0 0zm466.42 -26.32c5.24,0 10.59,-1.2 15.59,-3.76 21.19,-10.78 42.17,-22.87 62.34,-36.11 15.91,-10.41 20.36,-31.75 9.95,-47.7 -10.47,-15.88 -31.77,-20.36 -47.73,-9.96 -18.01,11.83 -36.81,22.71 -55.75,32.34 -16.96,8.6 -23.75,29.35 -15.13,46.3 6.07,12 18.19,18.89 30.73,18.89l0 0zm-693 -122.61c8.75,0 17.54,-3.35 24.26,-10 13.51,-13.4 13.61,-35.21 0.2,-48.72 -14.99,-15.1 -29.56,-31.36 -43.32,-48.31 -12.02,-14.76 -33.73,-17 -48.48,-5.01 -14.74,12 -17.02,33.71 -4.99,48.49 15.19,18.68 31.29,36.63 47.87,53.35 6.75,6.79 15.63,10.2 24.46,10.2l0 0zm903.5 -48.52c9.95,0 19.85,-4.31 26.67,-12.59 14.95,-18.25 29.32,-37.55 42.66,-57.36 10.65,-15.79 6.48,-37.23 -9.31,-47.87 -15.75,-10.66 -37.17,-6.53 -47.83,9.3 -12.17,18.06 -25.22,35.63 -38.84,52.21 -12.05,14.71 -9.92,36.43 4.79,48.52 6.38,5.23 14.17,7.79 21.86,7.79l0 0zm-1054.99 -177.03c4.61,0 9.27,-0.93 13.76,-2.86 17.46,-7.62 25.42,-27.91 17.85,-45.38 -8.66,-19.78 -16.55,-40.32 -23.47,-60.97 -6.07,-17.99 -25.61,-27.74 -43.67,-21.67 -18.02,6.1 -27.74,25.6 -21.67,43.66 7.57,22.5 16.2,44.9 25.6,66.51 5.69,12.95 18.36,20.71 31.6,20.71l0 0zm1186.35 -60.89c14.33,0 27.74,-9.07 32.64,-23.37 7.61,-22.33 14.37,-45.31 20.09,-68.33 4.61,-18.47 -6.63,-37.15 -25.09,-41.74 -18.41,-4.68 -37.19,6.63 -41.76,25.1 -5.28,21.12 -11.48,42.24 -18.48,62.71 -6.14,18.03 3.49,37.61 21.46,43.73 3.67,1.28 7.45,1.9 11.14,1.9l0 0zm-1251.45 -203.21c0.9,0 1.79,-0.04 2.7,-0.1 18.98,-1.49 33.14,-18.07 31.69,-37.05 -1.61,-20.89 -2.44,-42.22 -2.44,-63.35 0,-19.02 -15.45,-35.56 -34.47,-35.56 -19.02,0 -34.45,14.31 -34.45,33.33l0 2.23c0,22.93 0.89,46.02 2.66,68.69 1.37,18.05 16.5,31.81 34.31,31.81l0 0zm1295.52 -65.66c19.02,0 34.47,-15.05 34.47,-34.07l0 -0.77c0,-23.49 -0.93,-47.14 -2.76,-70.19 -1.51,-18.96 -18.03,-33.01 -37.09,-31.63 -18.98,1.51 -33.14,18.13 -31.63,37.07 1.69,21.3 2.55,43.08 2.55,64.75 0,19.02 15.44,34.84 34.46,34.84l0 0zm-1272.84 -205.49c15.4,0 29.42,-10.4 33.35,-26.01 5.34,-21.19 11.59,-42.29 18.62,-62.76 6.16,-17.99 -3.45,-37.59 -21.44,-43.76 -18.03,-6.24 -37.63,3.41 -43.76,21.44 -7.66,22.26 -14.45,45.21 -20.23,68.2 -4.65,18.47 6.55,37.17 24.98,41.83 2.79,0.76 5.62,1.06 8.48,1.06l0 0zm1229.22 -62.61c3.68,0 7.41,-0.61 11.1,-1.86 18.01,-6.1 27.66,-25.67 21.56,-43.7 -7.62,-22.39 -16.26,-44.77 -25.73,-66.43 -7.66,-17.48 -27.92,-25.37 -45.39,-17.79 -17.44,7.62 -25.41,27.95 -17.79,45.39 8.72,19.89 16.65,40.42 23.61,60.95 4.93,14.38 18.27,23.44 32.64,23.44l0 0zm-1118.95 -185.85c11.07,0 21.89,-5.3 28.57,-15.15 12.2,-17.99 25.29,-35.54 38.95,-52.12 12.09,-14.67 9.99,-36.41 -4.69,-48.52 -14.69,-12.09 -36.43,-9.99 -48.52,4.69 -14.99,18.24 -29.4,37.5 -42.81,57.31 -10.68,15.75 -6.55,37.19 9.2,47.87 5.93,3.99 12.62,5.92 19.3,5.92l0 0zm988.13 -52.41c7.65,0 15.37,-2.55 21.78,-7.79 14.75,-12.03 16.92,-33.73 4.86,-48.49 -15.2,-18.6 -31.32,-36.53 -47.94,-53.24 -13.44,-13.44 -35.25,-13.54 -48.72,-0.14 -13.51,13.44 -13.58,35.22 -0.18,48.74 15.03,15.11 29.68,31.35 43.5,48.27 6.75,8.34 16.68,12.65 26.7,12.65l0 0zm-795.42 -138.87c6.44,0 12.96,-1.8 18.74,-5.59 18.03,-11.76 36.84,-22.58 55.9,-32.19 16.96,-8.58 23.77,-29.29 15.2,-46.28 -8.58,-16.92 -29.27,-23.85 -46.29,-15.23 -21.3,10.72 -42.27,22.81 -62.4,35.94 -15.96,10.4 -20.47,31.78 -10.07,47.69 6.62,10.18 17.62,15.66 28.92,15.66l0 0zm585.18 -32.74c12.55,0 24.64,-6.87 30.74,-18.82 8.65,-16.96 1.89,-37.7 -15.07,-46.36 -21.46,-10.92 -43.66,-20.73 -66.02,-29.07 -17.78,-6.69 -37.66,2.34 -44.35,20.19 -6.65,17.81 2.38,37.67 20.23,44.34 19.91,7.45 39.73,16.18 58.89,25.95 4.96,2.56 10.34,3.77 15.58,3.77l0 0zm-331.03 -60.28c1.35,0 2.68,-0.07 4.03,-0.24 20.75,-2.41 41.83,-3.61 62.68,-3.61 19.02,0 35.19,-15.45 35.19,-34.47 0,-19.02 -14.72,-34.46 -33.74,-34.46l-1.45 0c-23.5,0 -47.28,1.38 -70.64,4.1 -18.89,2.17 -32.46,19.27 -30.26,38.19 2,17.57 16.96,30.49 34.19,30.49z"/>
    </g>
    <path id="XMLID_114_" class="fil8" d="M7123.27 2274.08l206.69 0c-0.68,23.19 -1.99,46.18 -4.1,68.91l-206.86 0c2.13,-22.73 3.54,-45.72 4.27,-68.91z"/>
    <path id="XMLID_113_" class="fil8" d="M7115.37 2101.78l206.63 0c2.87,22.71 4.94,45.72 6.35,68.91l-206.73 0c-1.45,-23.19 -3.39,-46.2 -6.25,-68.91z"/>
    <path id="XMLID_112_" class="fil8" d="M7104.31 2446.39l206.8 0c-4.48,23.29 -9.64,46.28 -15.54,68.92l-206.73 0c5.86,-22.64 11,-45.63 15.47,-68.92z"/>
    <path id="XMLID_111_" class="fil8" d="M7056.1 2618.69l206.91 0c-8.8,23.49 -18.51,46.42 -28.85,68.92l-206.8 0c10.34,-22.48 19.95,-45.45 28.74,-68.92z"/>
    <path id="XMLID_110_" class="fil8" d="M7079.37 1929.48l206.51 0c6.73,22.63 13,45.55 18.24,68.91l-207.01 0c-5.23,-23.3 -11.06,-46.35 -17.74,-68.91z"/>
    <path id="XMLID_109_" class="fil8" d="M7010.72 1757.16l206.76 0c11.38,22.44 22.1,45.39 31.88,68.92l-206.9 0c-9.79,-23.49 -20.37,-46.48 -31.74,-68.92z"/>
    <path id="XMLID_108_" class="fil8" d="M6870.09 1550.4l207 0c19.61,21.92 38.26,44.91 55.89,68.92l-206.94 0c-17.67,-24.01 -36.35,-47 -55.95,-68.92z"/>
    <path id="XMLID_107_" class="fil8" d="M6659.35 1378.1l207.22 0c35.22,20.33 68.99,43.35 101.18,68.92l-207.08 0c-32.22,-25.57 -66.06,-48.59 -101.32,-68.92z"/>
    <path id="XMLID_106_" class="fil8" d="M6950.24 2825.45l206.87 0c-15.99,23.89 -32.88,46.86 -50.73,68.92l-207.01 0c17.85,-22.06 34.85,-45.03 50.87,-68.92z"/>
    <path id="XMLID_105_" class="fil8" d="M7008.37 2997.75c-27.67,24.92 -56.64,48.05 -86.98,68.92l-207.24 0c30.46,-20.91 59.76,-43.9 87.52,-68.92l206.7 0z"/>
   </g>
   <path class="fil9" d="M6171.03 2241.14c42.27,-24.17 85.1,-69.03 85.1,-173.74 0,-123.85 -59.06,-164.32 -160.6,-137.06 -33.99,9.12 -68.09,17.14 -102.18,24.35 -33.96,7.17 -68.06,13.02 -102.07,18.64 0,77.21 0,154.51 0,231.62 0,77.1 0,154.3 0,231.42 35.13,1.67 70.28,3.95 105.48,6.71 0,-29.48 0,-58.97 0,-88.35 0,-29.49 0,-59.07 0,-88.56 22.92,-0.48 45.85,-0.87 68.77,-1.17 14.76,31.05 29.65,62.95 44.26,95.45 14.89,33.07 29.51,67.25 44.26,101.85 41,5.62 82.09,10.66 123.17,15.1 -17.76,-41.33 -35.28,-82.23 -53.14,-121.99 -17.52,-39 -35.36,-77.11 -53.05,-114.27zm-22.46 -150.97c0,53.74 -24.48,88.07 -81.69,92.69 -23.37,1.88 -46.79,3.25 -70.12,4.93 0,-50.78 0,-101.56 0,-152.44 26.74,-4.54 53.59,-9.14 80.35,-14.29 50.42,-9.73 71.46,17.05 71.46,69.11zm535.88 130.36c0,-96.13 -10.38,-167.79 -37.04,-211.81 -25.85,-42.64 -68.26,-57.15 -130.48,-42.88 -81.02,18.56 -130.08,44.76 -171.57,68.72 0,106.99 0,214.07 0,320.96 0,106.89 0,213.88 0,320.76 33.08,5.13 66.23,9.96 99.39,14.69 0,-69.81 0,-139.73 0,-209.72 19.04,9.25 50.41,19.07 82.41,21.48 51.75,3.9 91.25,-14.68 117.39,-60.15 26.52,-46.12 39.9,-120.39 39.9,-222.05zm-102.17 2.56c0,89.24 -5.47,173.71 -72.18,172.95 -27.18,-0.31 -54.48,-6.41 -65.35,-13.01 0,-47.73 0,-95.65 0,-143.38 0,-47.71 0,-95.63 0,-143.45 8.87,-6.42 34.72,-17.93 65.35,-23.09 65.34,-11 72.18,69.02 72.18,149.98z"/>
   <circle class="fil1" cx="8554.84" cy="1060.82" r="121.02"/>
   <circle class="fil1" cx="2879.3" cy="3761.17" r="121.02"/>
   <circle class="fil10" cx="9243.17" cy="6100.98" r="121.02"/>
   <g>
    <path class="fil11" d="M12046.91 4533.36c113.02,0 216.08,46.41 291.36,121.48l0.53 -0.54c74.72,74.72 120.94,177.95 120.94,291.91 0,112.74 -46.18,215.58 -120.94,290.84l0 0c-0.18,0.17 -0.35,0.34 -0.53,0.52 -0.18,0.18 -0.34,0.35 -0.52,0.53l0 0c-75.25,74.75 -178.09,120.94 -290.84,120.94 -113.96,0 -217.19,-46.22 -291.91,-120.94l0.54 -0.53c-75.08,-75.3 -121.48,-178.36 -121.48,-291.36 0,-113.04 46.41,-216.09 121.48,-291.37l-0.54 -0.54c74.72,-74.72 177.95,-120.94 291.91,-120.94zm0 269.13c79.36,0 143.71,64.34 143.71,143.72 0,79.36 -64.35,143.71 -143.71,143.71 -79.38,0 -143.72,-64.35 -143.72,-143.71 0,-79.38 64.34,-143.72 143.72,-143.72z"/>
   </g>
   <g>
    <path class="fil12" d="M2992.77 0c113.95,0 217.18,46.22 291.9,120.94l-0.53 0.53c75.06,75.28 121.47,178.34 121.47,291.36 0,113.96 -46.22,217.19 -120.94,291.91l-0.53 -0.54c-75.28,75.07 -178.33,121.48 -291.37,121.48 -113.01,0 -216.07,-46.4 -291.36,-121.48l-0.54 0.54c-74.72,-74.72 -120.93,-177.95 -120.93,-291.91 0,-112.75 46.19,-215.59 120.93,-290.84l0 0c0.18,-0.17 0.36,-0.34 0.54,-0.52 0.18,-0.18 0.34,-0.35 0.52,-0.53l0 0c75.25,-74.76 178.1,-120.94 290.84,-120.94zm0 269.12c79.37,0 143.72,64.35 143.72,143.71 0,79.38 -64.35,143.72 -143.72,143.72 -79.37,0 -143.71,-64.34 -143.71,-143.72 0,-79.36 64.34,-143.71 143.71,-143.71z"/>
   </g>
   <path class="fil13" d="M8984.62 1214.73c-12.6,-12.6 -12.6,-33.03 0,-45.63 12.6,-12.6 33.03,-12.6 45.63,0l189.74 189.73c12.6,12.59 12.6,33.04 0,45.64 -12.6,12.6 -33.05,12.6 -45.65,0l-189.72 -189.74z"/>
   <path class="fil13" d="M9174.34 1169.1c12.6,-12.6 33.05,-12.6 45.65,0 12.6,12.6 12.6,33.03 0,45.63l-189.74 189.74c-12.6,12.6 -33.03,12.6 -45.63,0 -12.6,-12.6 -12.6,-33.05 0,-45.64l189.72 -189.73z"/>
   <path class="fil14" d="M2678.76 6592.77c-12.6,-12.6 -12.6,-33.05 0,-45.64 12.6,-12.59 33.05,-12.59 45.65,0l189.73 189.73c12.59,12.6 12.59,33.04 0,45.64 -12.6,12.6 -33.04,12.6 -45.64,0l-189.74 -189.73z"/>
   <path class="fil14" d="M2868.5 6547.13c12.6,-12.59 33.04,-12.59 45.64,0 12.59,12.59 12.59,33.04 0,45.64l-189.73 189.73c-12.6,12.6 -33.05,12.6 -45.65,0 -12.6,-12.6 -12.6,-33.04 0,-45.64l189.74 -189.73z"/>
   <path class="fil15" d="M102.63 5098.4c3.17,27.63 -16.68,52.6 -44.31,55.75 -27.64,3.15 -52.6,-16.69 -55.75,-44.32 -0.09,-0.73 -31.44,-253.84 127.17,-364.57 88.45,-61.75 164.1,-53.01 236.15,-44.68 44.44,5.14 87.03,10.07 122.91,-10.64l0.19 0c43.62,-25.19 78.38,-67.87 101.61,-115.83 25.38,-52.38 36.43,-109.67 29.89,-156.47 -3.8,-27.53 15.43,-52.92 42.94,-56.73 27.53,-3.8 52.93,15.42 56.73,42.93 9.21,65.99 -5.17,144.32 -38.94,214.01 -31.29,64.6 -79.72,123.04 -142.05,159.07l0.05 0.09c-64.95,37.49 -123.58,30.73 -184.76,23.65 -53.82,-6.22 -110.35,-12.76 -167.2,26.94 -108.65,75.84 -84.68,270.24 -84.63,270.8z"/>
   <path class="fil16" d="M12031.13 2677.06c5,27.3 -13.08,53.5 -40.38,58.5 -27.31,5.01 -53.5,-13.07 -58.51,-40.38 -0.06,-0.36 -23.31,-124.09 81.98,-157.79 52.57,-16.82 91.07,11.48 132.34,41.82 26.64,19.58 55.53,40.81 76.07,31.15 21.04,-9.9 34.57,-55.33 48.7,-102.76 21.32,-71.55 43.6,-146.32 112.62,-183.5 74.15,-39.92 130.61,-4.46 188.15,31.66 34.25,21.51 69.16,43.43 97.36,28.67 32.21,-16.87 45.63,-62.49 59.06,-108.14 20.91,-71.07 41.87,-142.27 124.09,-176.23 88.42,-36.53 145.64,0.73 197.29,34.34 22.11,14.38 42.3,27.53 53.31,23.26 25.88,-10.01 55,2.87 65.01,28.76 10,25.88 -2.88,55 -28.76,65.01 -58.97,22.83 -99.71,-3.68 -144.32,-32.72 -30.66,-19.95 -64.63,-42.06 -104.31,-25.67 -37.5,15.47 -51.65,63.6 -65.78,111.63 -19.42,66.03 -38.83,131.98 -109.11,168.78 -79.32,41.55 -138.95,4.12 -197.42,-32.6 -32.41,-20.34 -64.22,-40.31 -86.9,-28.11 -32.08,17.28 -48.28,71.62 -63.77,123.62 -20.64,69.32 -40.43,135.72 -102.68,165.01 -74.58,35.09 -128.44,-4.49 -178.11,-41.02 -19.95,-14.66 -38.57,-28.35 -42.11,-27.22 -20.77,6.64 -13.84,43.82 -13.82,43.93z"/>
  </g>
 </g>
</svg>
